<svg width="48" height="48" viewBox="0 0 48 48" fill="none" xmlns="http://www.w3.org/2000/svg">
<mask id="mask0_31909_750" style="mask-type:alpha" maskUnits="userSpaceOnUse" x="0" y="0" width="48" height="48">
<rect width="48" height="48" fill="#D9D9D9"/>
</mask>
<g mask="url(#mask0_31909_750)">
<path d="M8 14C8 12.3333 8.58333 10.9167 9.75 9.75C10.9167 8.58333 12.3333 8 14 8H34C35.6667 8 37.0833 8.58333 38.25 9.75C39.4167 10.9167 40 12.3333 40 14V18C41.6667 18 43.0833 18.5833 44.25 19.75C45.4167 20.9167 46 22.3333 46 24V34C46 35.6667 45.4167 37.0833 44.25 38.25C43.0833 39.4167 41.6667 40 40 40H8C6.33333 40 4.91667 39.4167 3.75 38.25C2.58333 37.0833 2 35.6667 2 34V24C2 22.3333 2.58333 20.9167 3.75 19.75C4.91667 18.5833 6.33333 18 8 18V14ZM12 14V19.6C12.6 20.1667 13.0833 20.8167 13.45 21.55C13.8167 22.2833 14 23.1 14 24V28H34V24C34 23.1 34.1833 22.2833 34.55 21.55C34.9167 20.8167 35.4 20.1667 36 19.6V14C36 13.4333 35.8083 12.9583 35.425 12.575C35.0417 12.1917 34.5667 12 34 12H14C13.4333 12 12.9583 12.1917 12.575 12.575C12.1917 12.9583 12 13.4333 12 14ZM38 32H10V24C10 23.7333 9.95 23.475 9.85 23.225C9.75 22.975 9.60833 22.7583 9.425 22.575C9.24167 22.3917 9.025 22.25 8.775 22.15C8.525 22.05 8.26667 22 8 22C7.43333 22 6.95833 22.1917 6.575 22.575C6.19167 22.9583 6 23.4333 6 24V34C6 34.5667 6.19167 35.0417 6.575 35.425C6.95833 35.8083 7.43333 36 8 36H40C40.5667 36 41.0417 35.8083 41.425 35.425C41.8083 35.0417 42 34.5667 42 34V24C42 23.4333 41.8083 22.9583 41.425 22.575C41.0417 22.1917 40.5667 22 40 22C39.7333 22 39.475 22.05 39.225 22.15C38.975 22.25 38.7583 22.3917 38.575 22.575C38.3917 22.7583 38.25 22.975 38.15 23.225C38.05 23.475 38 23.7333 38 24V32Z" fill="#4640DE"/>
</g>
</svg>
