<svg width="48" height="48" viewBox="0 0 48 48" fill="none" xmlns="http://www.w3.org/2000/svg">
<mask id="mask0_31909_731" style="mask-type:alpha" maskUnits="userSpaceOnUse" x="0" y="0" width="48" height="48">
<rect width="48" height="48" fill="#D9D9D9"/>
</mask>
<g mask="url(#mask0_31909_731)">
<path d="M21.2 44C19.5 44 18.2083 43.4917 17.325 42.475C16.4417 41.4583 16 40.3 16 39C16 38.1333 16.1917 37.2917 16.575 36.475C16.9583 35.6583 17.55 34.9833 18.35 34.45C19.0833 33.9833 19.675 33.3833 20.125 32.65C20.575 31.9167 20.8833 31.1333 21.05 30.3L20.45 30C20.25 29.9 20.0667 29.7833 19.9 29.65L15.3 31.3C14.7333 31.5 14.1833 31.6667 13.65 31.8C13.1167 31.9333 12.5667 32 12 32C9.9 32 8.04167 31.0833 6.425 29.25C4.80833 27.4167 4 24.7333 4 21.2C4 19.5 4.50833 18.2083 5.525 17.325C6.54167 16.4417 7.68333 16 8.95 16C9.81667 16 10.6667 16.1917 11.5 16.575C12.3333 16.9583 13.0167 17.55 13.55 18.35C14.0167 19.0833 14.6167 19.675 15.35 20.125C16.0833 20.575 16.8667 20.8833 17.7 21.05L18 20.45C18.1 20.25 18.2167 20.0667 18.35 19.9L16.7 15.3C16.5 14.7333 16.3333 14.1833 16.2 13.65C16.0667 13.1167 16 12.5833 16 12.05C16 9.91667 16.9167 8.04167 18.75 6.425C20.5833 4.80833 23.2667 4 26.8 4C28.5 4 29.7917 4.50833 30.675 5.525C31.5583 6.54167 32 7.68333 32 8.95C32 9.81667 31.8083 10.6667 31.425 11.5C31.0417 12.3333 30.45 13.0167 29.65 13.55C28.9167 14.0167 28.325 14.6167 27.875 15.35C27.425 16.0833 27.1167 16.8667 26.95 17.7L27.55 18C27.75 18.1 27.9333 18.2167 28.1 18.35L32.7 16.65C33.2667 16.45 33.8083 16.2917 34.325 16.175C34.8417 16.0583 35.3833 16 35.95 16C38.65 16 40.6667 17.1167 42 19.35C43.3333 21.5833 44 24.0667 44 26.8C44 28.5 43.4667 29.7917 42.4 30.675C41.3333 31.5583 40.15 32 38.85 32C38.0167 32 37.2083 31.8083 36.425 31.425C35.6417 31.0417 34.9833 30.45 34.45 29.65C33.9833 28.9167 33.3833 28.325 32.65 27.875C31.9167 27.425 31.1333 27.1167 30.3 26.95L30 27.55C29.9 27.75 29.7833 27.9333 29.65 28.1L31.3 32.7C31.5 33.2333 31.6667 33.7417 31.8 34.225C31.9333 34.7083 32 35.2167 32 35.75C32.0333 37.9167 31.1333 39.8333 29.3 41.5C27.4667 43.1667 24.7667 44 21.2 44ZM24 27C24.8333 27 25.5417 26.7083 26.125 26.125C26.7083 25.5417 27 24.8333 27 24C27 23.1667 26.7083 22.4583 26.125 21.875C25.5417 21.2917 24.8333 21 24 21C23.1667 21 22.4583 21.2917 21.875 21.875C21.2917 22.4583 21 23.1667 21 24C21 24.8333 21.2917 25.5417 21.875 26.125C22.4583 26.7083 23.1667 27 24 27ZM21.7 17.4C21.9 17.3333 22.1083 17.275 22.325 17.225C22.5417 17.175 22.75 17.1333 22.95 17.1C23.2167 15.7 23.725 14.4 24.475 13.2C25.225 12 26.2167 11 27.45 10.2C27.6167 10.0667 27.75 9.9 27.85 9.7C27.95 9.5 28 9.25 28 8.95C28 8.68333 27.9 8.45833 27.7 8.275C27.5 8.09167 27.2 8 26.8 8C25.5333 8 24.1 8.275 22.5 8.825C20.9 9.375 20.0667 10.45 20 12.05C20 12.35 20.0417 12.6333 20.125 12.9C20.2083 13.1667 20.2833 13.4167 20.35 13.65L21.7 17.4ZM12 28C12.4667 28 13.0167 27.8833 13.65 27.65L17.4 26.3C17.3333 26.1 17.275 25.8917 17.225 25.675C17.175 25.4583 17.1333 25.25 17.1 25.05C15.7 24.7833 14.4 24.275 13.2 23.525C12 22.775 11 21.7833 10.2 20.55C10.0667 20.3833 9.89167 20.25 9.675 20.15C9.45833 20.05 9.21667 20 8.95 20C8.65 20 8.41667 20.1 8.25 20.3C8.08333 20.5 8 20.8 8 21.2C8 23 8.34167 24.5833 9.025 25.95C9.70833 27.3167 10.7 28 12 28ZM21.2 40C22.7667 40 24.3083 39.6833 25.825 39.05C27.3417 38.4167 28.0667 37.3167 28 35.75C28 35.4833 27.9583 35.2333 27.875 35C27.7917 34.7667 27.7167 34.55 27.65 34.35L26.3 30.6C26.1 30.6667 25.8917 30.725 25.675 30.775C25.4583 30.825 25.25 30.8667 25.05 30.9C24.7833 32.3 24.275 33.6 23.525 34.8C22.775 36 21.7833 37 20.55 37.8C20.3833 37.9333 20.2417 38.1083 20.125 38.325C20.0083 38.5417 19.9667 38.7667 20 39C20.0333 39.2667 20.1333 39.5 20.3 39.7C20.4667 39.9 20.7667 40 21.2 40ZM38.85 28C39.15 28 39.4167 27.9167 39.65 27.75C39.8833 27.5833 40 27.2667 40 26.8C40 25.5333 39.7333 24.0917 39.2 22.475C38.6667 20.8583 37.5833 20.0333 35.95 20C35.65 20 35.3667 20.0333 35.1 20.1C34.8333 20.1667 34.5833 20.2333 34.35 20.3L30.6 21.7C30.6667 21.9 30.725 22.1083 30.775 22.325C30.825 22.5417 30.8667 22.75 30.9 22.95C32.3 23.2167 33.6 23.725 34.8 24.475C36 25.225 37 26.2167 37.8 27.45C37.9 27.6167 38.05 27.75 38.25 27.85C38.45 27.95 38.65 28 38.85 28Z" fill="#4640DE"/>
</g>
</svg>
