<svg width="48" height="48" viewBox="0 0 48 48" fill="none" xmlns="http://www.w3.org/2000/svg">
<mask id="mask0_31909_745" style="mask-type:alpha" maskUnits="userSpaceOnUse" x="0" y="0" width="48" height="48">
<rect width="48" height="48" fill="#D9D9D9"/>
</mask>
<g mask="url(#mask0_31909_745)">
<path d="M11 44V29H8V18C8 16.9 8.39167 15.9583 9.175 15.175C9.95833 14.3917 10.9 14 12 14H18C19.1 14 20.0417 14.3917 20.825 15.175C21.6083 15.9583 22 16.9 22 18V29H19V44H11ZM15 12C13.9 12 12.9583 11.6083 12.175 10.825C11.3917 10.0417 11 9.1 11 8C11 6.9 11.3917 5.95833 12.175 5.175C12.9583 4.39167 13.9 4 15 4C16.1 4 17.0417 4.39167 17.825 5.175C18.6083 5.95833 19 6.9 19 8C19 9.1 18.6083 10.0417 17.825 10.825C17.0417 11.6083 16.1 12 15 12ZM30 44V32H24L29.1 16.7C29.3667 15.8333 29.8583 15.1667 30.575 14.7C31.2917 14.2333 32.1 14 33 14C33.9 14 34.7083 14.2333 35.425 14.7C36.1417 15.1667 36.6333 15.8333 36.9 16.7L42 32H36V44H30ZM33 12C31.9 12 30.9583 11.6083 30.175 10.825C29.3917 10.0417 29 9.1 29 8C29 6.9 29.3917 5.95833 30.175 5.175C30.9583 4.39167 31.9 4 33 4C34.1 4 35.0417 4.39167 35.825 5.175C36.6083 5.95833 37 6.9 37 8C37 9.1 36.6083 10.0417 35.825 10.825C35.0417 11.6083 34.1 12 33 12Z" fill="#4640DE"/>
</g>
</svg>
