<svg width="48" height="48" viewBox="0 0 48 48" fill="none" xmlns="http://www.w3.org/2000/svg">
<mask id="mask0_31949_917" style="mask-type:alpha" maskUnits="userSpaceOnUse" x="0" y="0" width="48" height="48">
<rect width="48" height="48" fill="#D9D9D9"/>
</mask>
<g mask="url(#mask0_31949_917)">
<path d="M24 42C22.6 42 21.4167 41.5167 20.45 40.55C19.4833 39.5833 19 38.4 19 37C19 35.6 19.4833 34.4167 20.45 33.45C21.4167 32.4833 22.6 32 24 32C25.4 32 26.5833 32.4833 27.55 33.45C28.5167 34.4167 29 35.6 29 37C29 38.4 28.5167 39.5833 27.55 40.55C26.5833 41.5167 25.4 42 24 42ZM12.7 30.7L8.5 26.4C10.4667 24.4333 12.775 22.875 15.425 21.725C18.075 20.575 20.9333 20 24 20C27.0667 20 29.925 20.5833 32.575 21.75C35.225 22.9167 37.5333 24.5 39.5 26.5L35.3 30.7C33.8333 29.2333 32.1333 28.0833 30.2 27.25C28.2667 26.4167 26.2 26 24 26C21.8 26 19.7333 26.4167 17.8 27.25C15.8667 28.0833 14.1667 29.2333 12.7 30.7ZM4.2 22.2L0 18C3.06667 14.8667 6.65 12.4167 10.75 10.65C14.85 8.88333 19.2667 8 24 8C28.7333 8 33.15 8.88333 37.25 10.65C41.35 12.4167 44.9333 14.8667 48 18L43.8 22.2C41.2333 19.6333 38.2583 17.625 34.875 16.175C31.4917 14.725 27.8667 14 24 14C20.1333 14 16.5083 14.725 13.125 16.175C9.74167 17.625 6.76667 19.6333 4.2 22.2Z" fill="#4640DE"/>
</g>
</svg>
