<svg width="25" height="24" viewBox="0 0 25 24" fill="none" xmlns="http://www.w3.org/2000/svg">
<g opacity="0.5" clip-path="url(#clip0_31909_954)">
<path d="M16.7998 4H8.7998C6.59067 4 4.7998 5.79086 4.7998 8V16C4.7998 18.2091 6.59067 20 8.7998 20H16.7998C19.0089 20 20.7998 18.2091 20.7998 16V8C20.7998 5.79086 19.0089 4 16.7998 4Z" stroke="#515B6F" stroke-width="2" stroke-linecap="round" stroke-linejoin="round"/>
<path d="M12.7998 15C14.4567 15 15.7998 13.6569 15.7998 12C15.7998 10.3431 14.4567 9 12.7998 9C11.143 9 9.7998 10.3431 9.7998 12C9.7998 13.6569 11.143 15 12.7998 15Z" stroke="#515B6F" stroke-width="2" stroke-linecap="round" stroke-linejoin="round"/>
<path d="M17.2998 7.5V7.501" stroke="#515B6F" stroke-width="2" stroke-linecap="round" stroke-linejoin="round"/>
</g>
<defs>
<clipPath id="clip0_31909_954">
<rect width="24" height="24" fill="white" transform="translate(0.799805)"/>
</clipPath>
</defs>
</svg>
