<svg width="25" height="24" viewBox="0 0 25 24" fill="none" xmlns="http://www.w3.org/2000/svg">
<g opacity="0.5" clip-path="url(#clip0_31909_959)">
<path d="M18.7998 4H6.7998C5.69524 4 4.7998 4.89543 4.7998 6V18C4.7998 19.1046 5.69524 20 6.7998 20H18.7998C19.9044 20 20.7998 19.1046 20.7998 18V6C20.7998 4.89543 19.9044 4 18.7998 4Z" stroke="#515B6F" stroke-width="2" stroke-linecap="round" stroke-linejoin="round"/>
<path d="M8.7998 11V16" stroke="#515B6F" stroke-width="2" stroke-linecap="round" stroke-linejoin="round"/>
<path d="M8.7998 8V8.01" stroke="#515B6F" stroke-width="2" stroke-linecap="round" stroke-linejoin="round"/>
<path d="M12.7998 16V11" stroke="#515B6F" stroke-width="2" stroke-linecap="round" stroke-linejoin="round"/>
<path d="M16.7998 16V13C16.7998 12.4696 16.5891 11.9609 16.214 11.5858C15.8389 11.2107 15.3302 11 14.7998 11C14.2694 11 13.7607 11.2107 13.3856 11.5858C13.0105 11.9609 12.7998 12.4696 12.7998 13" stroke="#515B6F" stroke-width="2" stroke-linecap="round" stroke-linejoin="round"/>
</g>
<defs>
<clipPath id="clip0_31909_959">
<rect width="24" height="24" fill="white" transform="translate(0.799805)"/>
</clipPath>
</defs>
</svg>
