<svg width="160" height="29" viewBox="0 0 160 29" fill="none" xmlns="http://www.w3.org/2000/svg">
<g clip-path="url(#clip0_31898_709)">
<path d="M14.74 0.00272398C14.74 0.830372 14.74 1.65802 14.74 2.48567C14.74 3.56061 14.74 4.63555 14.74 5.70906C13.743 5.70477 12.8631 5.70906 12.1232 5.7205C11.3574 5.7305 10.7245 5.74623 9.9096 5.85486C9.36485 5.92777 8.98917 6.00924 8.61348 6.12646C8.14388 6.27226 7.80432 6.37661 7.45031 6.60961C6.72205 7.08562 5.97791 8.06621 6.15708 9.02823C6.20188 9.26552 6.29002 9.43562 6.37382 9.59715C6.7524 10.329 7.35205 10.7193 7.60491 10.8422C8.7941 11.4211 10.0931 11.6184 11.395 11.6427C14.2646 11.6956 17.1372 11.657 20.0068 11.687C22.0529 11.7084 24.0859 11.8828 26.0019 12.669C29.3137 14.027 31.1026 16.4756 31.1791 20.0449C31.2543 23.5642 29.6937 26.1344 26.4628 27.671C24.8387 28.4429 23.0932 28.7631 21.3246 28.9104C19.8595 29.0333 18.3813 29.0118 16.9089 29.0733C16.5491 29.089 16.4234 28.999 16.4292 28.6173C16.4523 27.0478 16.4523 25.4768 16.4292 23.9073C16.4234 23.5156 16.5318 23.4127 16.9291 23.4099C18.7786 23.4013 20.6426 23.4299 22.4286 22.8652C23.0773 22.6594 23.7449 22.3549 24.2622 21.9275C25.4846 20.9126 25.2838 19.1544 23.9255 18.3239C22.6684 17.5563 21.2452 17.4291 19.8349 17.4033C16.8699 17.349 13.902 17.399 10.9369 17.3776C8.73197 17.3619 6.57323 17.0846 4.55609 16.1125C1.16048 14.4773 -0.342263 11.3511 0.0652106 7.87324C0.505918 4.10951 2.73691 1.76237 6.44752 0.760329C9.15823 0.028454 11.9181 -0.0144293 14.74 0.00272398Z" fill="#656C72"/>
<path d="M16.4551 5.66472V0.0327148H30.5187V11.9014C30.3858 11.8671 30.2629 11.8485 30.1531 11.8027C28.3455 11.0552 26.5451 10.2933 24.7303 9.56424C24.4023 9.43273 24.3315 9.25548 24.3372 8.941C24.3546 8.04474 24.317 7.14562 24.3546 6.24936C24.3734 5.79194 24.252 5.64757 23.7708 5.65186C21.5413 5.67759 19.3117 5.66329 17.0822 5.66329C16.8784 5.66329 16.6762 5.66329 16.4551 5.66329V5.66472Z" fill="#0D6EFD"/>
<path d="M14.8193 23.4215V29.0407H0.0332031C0.0996704 28.8691 0.150243 28.7162 0.218155 28.5704C0.939181 26.9923 1.65298 25.4127 2.39424 23.8446C2.47804 23.6674 2.71646 23.4387 2.88407 23.4387C6.84755 23.4158 10.811 23.4215 14.8207 23.4215H14.8193Z" fill="#0D6EFD"/>
<path d="M13.6605 2.57146C13.5088 2.57146 13.3397 2.56998 13.1548 2.57146" stroke="white" stroke-width="0.391979" stroke-miterlimit="10"/>
<path d="M12.1376 2.59863C11.7562 2.61579 11.3371 2.64152 10.8892 2.68011C8.53828 2.88452 7.2335 3.01317 5.88392 3.85654C4.79588 4.53696 4.21068 5.35031 4.04885 5.58331C3.73819 6.03359 2.91457 7.26862 3.02294 8.93678C3.12842 10.5549 4.05174 11.6441 4.31038 11.94C5.96917 13.8426 8.60764 14.0699 11.6883 14.2943C13.2546 14.4073 13.113 14.2657 16.2528 14.2743C20.4229 14.2843 22.5427 14.3058 24.2347 15.0419C25.2461 15.4822 27.5494 16.4857 28.2068 18.7399C28.6894 20.3938 28.0392 21.8761 27.9352 22.1034C27.8268 22.3421 27.3254 23.3899 25.8169 24.4191C23.372 26.0858 20.3362 26.3031 18.5402 26.2702" stroke="white" stroke-width="0.391979" stroke-miterlimit="10" stroke-dasharray="0.92 0.92"/>
<path d="M18.0316 26.2532C17.8395 26.2446 17.6704 26.2331 17.5273 26.2217" stroke="white" stroke-width="0.391979" stroke-miterlimit="10"/>
<path d="M37.6913 26.0509V28.8224H33.6641V22.7597H44.1879C45.0275 22.7597 45.3957 22.24 45.3957 21.6493C45.3957 21.0941 44.9916 20.61 44.1879 20.61H33.682L36.3624 17.23H43.5953C47.3262 17.23 49.4633 19.0643 49.4633 21.6626C49.4633 24.261 47.3262 26.0465 43.5818 26.0465H37.7003L37.6913 26.0509Z" fill="white"/>
<path d="M63.2738 28.8224L61.0514 25.9487H55.7625V28.8224H51.7173V22.7597H62.313C63.2783 22.7597 63.8036 22.431 63.8036 21.6671C63.8036 20.9031 63.2783 20.61 62.313 20.61H51.7352L54.3797 17.23H61.8056C64.4501 17.23 68.0059 18.0073 68.0059 21.4406C68.0059 23.1728 66.9733 24.6962 65.1505 25.1315C65.4648 25.3402 66.2549 26.0331 67.8488 27.8675L68.6884 28.8224H63.2783H63.2738Z" fill="white"/>
<path d="M70.502 28.8224V17.2344H74.5472V28.8224H70.502Z" fill="white"/>
<path d="M80.9046 22.6045V28.8226H77.2275V19.4687C77.2275 17.7365 78.2602 17.0259 79.432 17.0259C79.9214 17.0259 80.3973 17.1458 81.0438 17.701L87.6796 23.4706V17.2346H91.3566V26.6063C91.3566 28.3385 90.306 29.0491 89.1342 29.0491C88.6269 29.0491 88.1689 28.9115 87.5224 28.3563L80.9046 22.6045Z" fill="white"/>
<path d="M98.1676 28.8224V20.61H92.8428L95.4692 17.23H108.705L106.078 20.61H102.226V28.8224H98.1631H98.1676Z" fill="white"/>
<path d="M110.268 28.8224V17.2344H124.118L121.492 20.6144H114.331V21.5826H123.4L121.142 24.4075H114.331V25.5001H124.136L121.546 28.8268H110.268V28.8224Z" fill="white"/>
<path d="M137.341 28.8224L135.118 25.9487H129.829V28.8224H125.784V22.7597H136.38C137.345 22.7597 137.87 22.431 137.87 21.6671C137.87 20.9031 137.345 20.61 136.38 20.61H125.802L128.447 17.23H135.873C138.517 17.23 142.073 18.0073 142.073 21.4406C142.073 23.1728 141.04 24.6962 139.217 25.1315C139.532 25.3402 140.322 26.0331 141.916 27.8675L142.755 28.8224H137.345H137.341Z" fill="white"/>
<path d="M143.819 28.8225L146.428 25.4957H155.273C155.798 25.4957 156.094 25.3048 156.094 24.8872C156.094 24.4697 155.798 24.2788 155.237 24.2788H148.619C145.588 24.2788 144.205 22.8752 144.205 20.9165C144.205 18.5803 145.678 17.2256 149.337 17.2256H159.668L157.059 20.6056H148.951C148.408 20.6056 148.129 20.7433 148.129 21.1608C148.129 21.5783 148.408 21.7338 148.951 21.7338H155.605C158.442 21.7338 160 22.8264 160 24.9361C160 27.3257 158.846 28.818 155.219 28.818H143.819V28.8225Z" fill="white"/>
<path d="M37.903 8.9082V13.1362H37.3342V9.43908H35.3676V13.1362H34.7988V8.9082H37.8997H37.903Z" fill="white"/>
<path d="M39.6894 12.6053H41.672V13.1362H39.1206V8.9082H41.6431V9.43908H39.6894V10.7361H41.4889V11.2606H39.6894V12.6021V12.6053Z" fill="white"/>
<path d="M44.2142 8.9082C44.6094 8.9082 44.9372 9.03853 45.2007 9.2992C45.4642 9.55987 45.5959 9.88095 45.5959 10.2688C45.5959 10.6566 45.4642 10.9745 45.2007 11.2352C44.9372 11.4958 44.6094 11.6294 44.2142 11.6294H43.2309V13.1393H42.6621V8.91138H44.2142V8.9082ZM44.2142 11.1017C44.4487 11.1017 44.6448 11.0222 44.799 10.8632C44.9532 10.7043 45.0304 10.5072 45.0304 10.2688C45.0304 10.0304 44.9532 9.82691 44.799 9.67114C44.6448 9.51537 44.4487 9.43589 44.2142 9.43589H43.2309V11.1017H44.2142Z" fill="white"/>
<path d="M47.1381 12.6053H49.1208V13.1362H46.5693V8.9082H49.0918V9.43908H47.1381V10.7361H48.9376V11.2606H47.1381V12.6021V12.6053Z" fill="white"/>
<path d="M52.5557 10.9459C52.7517 11.0381 52.906 11.1716 53.0217 11.3432C53.1374 11.5149 53.1952 11.7152 53.1952 11.9409C53.1952 12.2778 53.0763 12.564 52.8353 12.7928C52.5943 13.0217 52.3019 13.1362 51.9548 13.1362H50.1104V8.9082H51.8199C52.1541 8.9082 52.4368 9.01946 52.6682 9.2388C52.8996 9.46133 53.0152 9.73472 53.0152 10.059C53.0152 10.4341 52.861 10.7265 52.5525 10.9395L52.5557 10.9459ZM51.8231 9.43589H50.6823V10.7297H51.8231C52.003 10.7297 52.1541 10.6661 52.2762 10.5422C52.3983 10.4182 52.4593 10.2656 52.4593 10.0844C52.4593 9.9032 52.3983 9.75379 52.273 9.62981C52.1476 9.50266 51.9998 9.43908 51.8231 9.43908V9.43589ZM51.9548 12.6116C52.1444 12.6116 52.3083 12.5449 52.4368 12.4114C52.5654 12.2778 52.6329 12.1157 52.6329 11.9218C52.6329 11.7279 52.5654 11.5721 52.4336 11.4386C52.3019 11.3051 52.1412 11.2383 51.9548 11.2383H50.6791V12.6085H51.9548V12.6116Z" fill="white"/>
<path d="M54.1719 8.9082H54.7406V13.1362H54.1719V8.9082Z" fill="white"/>
<path d="M58.0186 10.9524C58.2371 11.0446 58.4106 11.1813 58.5327 11.3561C58.6548 11.5341 58.7159 11.7439 58.7159 11.9855C58.7159 12.3479 58.5777 12.6436 58.3046 12.8724C58.0282 13.1013 57.6651 13.2158 57.2152 13.2158C56.8039 13.2158 56.473 13.1236 56.2223 12.9424C55.9717 12.7612 55.7949 12.5291 55.6953 12.243L56.1773 11.9696C56.3026 12.4465 56.6497 12.6817 57.2152 12.6817C57.5109 12.6817 57.7422 12.615 57.9061 12.4846C58.07 12.3543 58.1503 12.1794 58.1503 11.9633C58.1503 11.7471 58.0732 11.5691 57.9222 11.4388C57.7712 11.3052 57.5559 11.2385 57.2827 11.2385H56.7814V10.7235H57.1413C57.4016 10.7235 57.6105 10.6599 57.7647 10.5328C57.919 10.4056 57.9961 10.2403 57.9961 10.0337C57.9961 9.82704 57.9254 9.6681 57.7808 9.54094C57.6362 9.41378 57.437 9.3502 57.1799 9.3502C56.7075 9.3502 56.3926 9.55683 56.2352 9.97327L55.7596 9.69988C56.0166 9.11496 56.489 8.82568 57.1831 8.82568C57.5944 8.82568 57.9286 8.93694 58.1825 9.16265C58.4363 9.38835 58.5649 9.67446 58.5649 10.021C58.5649 10.4247 58.3849 10.733 58.0282 10.946L58.0186 10.9524Z" fill="white"/>
<path d="M62.3341 8.9082H62.8964V13.1362H62.3341V11.232H60.2582V13.1362H59.6895V8.9082H60.2582V10.7011H62.3341V8.9082Z" fill="white"/>
<path d="M66.7753 13.1362V9.98267L64.5774 13.1362H64.1211V8.9082H64.6899V12.068L66.8878 8.9082H67.3441V13.1362H66.7753Z" fill="white"/>
<path d="M71.6691 13.1362H70.9718L69.1274 11.108V13.1362H68.5586V8.9082H69.1274V10.8156L70.9108 8.9082H71.6081L69.7218 10.9618L71.6691 13.1362Z" fill="white"/>
<path d="M75.1396 13.1362V9.98267L72.9417 13.1362H72.4854V8.9082H73.0541V12.068L75.2521 8.9082H75.7084V13.1362H75.1396Z" fill="white"/>
<path d="M80.7435 12.6658C81.0359 12.6658 81.3059 12.5959 81.5501 12.456C81.7943 12.3161 81.9742 12.1318 82.0931 11.9029L82.588 12.1794C82.4145 12.4941 82.1606 12.7453 81.8296 12.9328C81.4987 13.1204 81.1388 13.2126 80.7435 13.2126C80.1008 13.2126 79.5706 12.9996 79.1561 12.5768C78.7416 12.154 78.5327 11.6358 78.5327 11.0191C78.5327 10.4024 78.7416 9.8779 79.1561 9.45828C79.5706 9.03867 80.1008 8.82568 80.7435 8.82568C81.1356 8.82568 81.4955 8.91787 81.8232 9.10225C82.151 9.28662 82.4081 9.53776 82.588 9.85248L82.0931 10.1354C81.971 9.90333 81.7879 9.71577 81.5469 9.5759C81.3059 9.43603 81.0359 9.3661 80.7435 9.3661C80.3001 9.3661 79.9305 9.49643 79.6381 9.75392C79.3457 10.0114 79.169 10.3452 79.1143 10.7489H81.3123V11.2735H79.1143C79.1722 11.6804 79.3457 12.011 79.6381 12.2684C79.9305 12.5259 80.3001 12.6563 80.7435 12.6563V12.6658Z" fill="white"/>
<path d="M85.9752 10.9459C86.1712 11.0381 86.3254 11.1716 86.4411 11.3432C86.5568 11.5149 86.6146 11.7152 86.6146 11.9409C86.6146 12.2778 86.4957 12.564 86.2547 12.7928C86.0137 13.0217 85.7213 13.1362 85.3743 13.1362H83.5298V8.9082H85.2393C85.5735 8.9082 85.8563 9.01946 86.0876 9.2388C86.319 9.46133 86.4347 9.73472 86.4347 10.059C86.4347 10.4341 86.2804 10.7265 85.972 10.9395L85.9752 10.9459ZM85.2425 9.43589H84.1018V10.7297H85.2425C85.4225 10.7297 85.5735 10.6661 85.6956 10.5422C85.8177 10.4182 85.8788 10.2656 85.8788 10.0844C85.8788 9.9032 85.8177 9.75379 85.6924 9.62981C85.5671 9.50266 85.4193 9.43908 85.2425 9.43908V9.43589ZM85.3775 12.6116C85.5671 12.6116 85.731 12.5449 85.8595 12.4114C85.988 12.2778 86.0555 12.1157 86.0555 11.9218C86.0555 11.7279 85.988 11.5721 85.8563 11.4386C85.7245 11.3051 85.5639 11.2383 85.3775 11.2383H84.1018V12.6085H85.3775V12.6116Z" fill="white"/>
<path d="M89.1434 8.9082C89.5386 8.9082 89.8664 9.03853 90.1299 9.2992C90.3934 9.55987 90.5251 9.88095 90.5251 10.2688C90.5251 10.6566 90.3934 10.9745 90.1299 11.2352C89.8664 11.4958 89.5386 11.6294 89.1434 11.6294H88.1601V13.1393H87.5913V8.91138H89.1434V8.9082ZM89.1434 11.1017C89.3779 11.1017 89.574 11.0222 89.7282 10.8632C89.8825 10.7043 89.9596 10.5072 89.9596 10.2688C89.9596 10.0304 89.8825 9.82691 89.7282 9.67114C89.574 9.51537 89.3779 9.43589 89.1434 9.43589H88.1601V11.1017H89.1434Z" fill="white"/>
<path d="M95.0268 12.577C94.5962 13.003 94.0724 13.216 93.4554 13.216C92.8385 13.216 92.3147 13.003 91.8873 12.577C91.4599 12.1511 91.2446 11.6329 91.2446 11.0257C91.2446 10.4185 91.4599 9.89403 91.8873 9.47123C92.3147 9.04526 92.8385 8.83545 93.4554 8.83545C94.0724 8.83545 94.5994 9.04844 95.0268 9.47123C95.4542 9.89403 95.6695 10.4154 95.6695 11.0257C95.6695 11.6361 95.4542 12.1511 95.0268 12.577ZM92.2793 12.1924C92.5942 12.5103 92.9863 12.666 93.4554 12.666C93.9246 12.666 94.3166 12.5071 94.6315 12.1924C94.9464 11.8777 95.1039 11.4867 95.1039 11.0225C95.1039 10.5584 94.9464 10.1642 94.6315 9.84634C94.3166 9.53163 93.9246 9.37269 93.4554 9.37269C92.9863 9.37269 92.5942 9.53163 92.2793 9.84634C91.9644 10.1642 91.807 10.5552 91.807 11.0225C91.807 11.4898 91.9644 11.8745 92.2793 12.1924Z" fill="white"/>
<path d="M99.7604 8.9082V13.1362H99.1916V9.43908H97.225V13.1362H96.6562V8.9082H99.7572H99.7604Z" fill="white"/>
<path d="M103.639 13.1362V9.98267L101.441 13.1362H100.985V8.9082H101.554V12.068L103.752 8.9082H104.208V13.1362H103.639Z" fill="white"/>
</g>
<defs>
<clipPath id="clip0_31898_709">
<rect width="160" height="29" fill="white"/>
</clipPath>
</defs>
</svg>
