<svg width="161" height="48" viewBox="0 0 161 48" fill="none" xmlns="http://www.w3.org/2000/svg">
<g clip-path="url(#clip0_31891_195)">
<mask id="mask0_31891_195" style="mask-type:luminance" maskUnits="userSpaceOnUse" x="0" y="0" width="188" height="48">
<path d="M187.927 0.296387H0.667969V47.7038H187.927V0.296387Z" fill="white"/>
</mask>
<g mask="url(#mask0_31891_195)">
<mask id="mask1_31891_195" style="mask-type:luminance" maskUnits="userSpaceOnUse" x="0" y="-3" width="188" height="34">
<path d="M187.927 -2.31104H0.667969V30.4001H187.927V-2.31104Z" fill="white"/>
</mask>
<g mask="url(#mask1_31891_195)">
<mask id="mask2_31891_195" style="mask-type:luminance" maskUnits="userSpaceOnUse" x="-25" y="-59" width="716" height="457">
<path d="M-24.9321 -58.9629H690.287V397.096H-24.9321V-58.9629Z" fill="white"/>
</mask>
<g mask="url(#mask2_31891_195)">
<path d="M34.1132 16.2238C33.147 17.4915 32.2382 18.6966 31.3083 19.8853C31.2218 19.9959 31.0033 20.0506 30.8456 20.0512C27.6857 20.0651 24.526 20.0657 21.3661 20.0743C20.9701 20.0752 20.5731 20.091 20.1787 20.1255C19.5652 20.1786 19.2271 20.5095 19.1958 21.0534C19.1632 21.6201 19.4287 21.9623 20.0422 22.0951C20.2975 22.1504 20.5652 22.1703 20.8272 22.1709C23.5316 22.1776 26.236 22.1732 28.9401 22.1795C30.3197 22.1829 31.6646 22.3473 32.8853 23.0676C33.8406 23.6311 34.3981 24.4734 34.4896 25.5564C34.5482 26.249 34.5074 26.9689 34.3834 27.6535C34.144 28.9742 33.3291 29.8837 32.1169 30.441C31.1142 30.9018 30.0523 31.1322 28.9553 31.1348C24.1495 31.1462 19.3434 31.1377 14.5375 31.1353C14.4945 31.1353 14.4519 31.1218 14.3555 31.1054C14.4203 30.9945 14.4645 30.8959 14.5287 30.812C15.3415 29.7524 16.1623 28.699 16.967 27.6328C17.1266 27.4212 17.2989 27.3512 17.5583 27.3519C21.1445 27.3567 24.7308 27.3541 28.3167 27.3446C28.6519 27.3436 28.9946 27.3178 29.3201 27.2441C29.8797 27.1175 30.1423 26.7309 30.1272 26.1466C30.1139 25.6465 29.8489 25.3317 29.2923 25.2252C28.9785 25.1653 28.6523 25.1473 28.3311 25.1463C25.5976 25.139 22.8638 25.1506 20.13 25.1323C19.113 25.1255 18.1133 24.9714 17.1655 24.566C15.8634 24.0088 15.0467 23.0524 14.8362 21.6466C14.5957 20.042 14.9405 18.6021 16.2404 17.519C17.0773 16.8215 18.0959 16.5143 19.1534 16.3692C19.9072 16.2662 20.6733 16.2058 21.434 16.2039C25.5637 16.1929 29.6936 16.2058 33.8238 16.2112C33.8939 16.2112 33.9641 16.2172 34.1132 16.2238Z" fill="#4640DE"/>
<path d="M45.908 23.1795C45.8742 27.0918 45.1732 30.2847 43.7195 33.3065C43.476 33.8128 43.2788 33.9476 42.7495 33.739C42.1844 33.5162 41.6141 33.2325 41.1481 32.8513C40.4126 32.2495 39.7572 31.5491 39.0833 30.8749C39.0119 30.8036 38.993 30.6042 39.0375 30.503C40.071 28.1561 40.5719 25.7056 40.4664 23.1419C40.3405 20.0813 39.4277 17.2722 37.6954 14.7391C36.4021 12.8478 34.7827 11.2884 32.8272 10.0928C31.1224 9.0505 29.2899 8.31695 27.3158 7.96613C27.0567 7.92 26.9136 7.80938 26.8818 7.56002C26.7287 6.34195 26.5727 5.12422 26.4352 3.9046C26.4129 3.70674 26.4625 3.49594 26.504 3.2965C26.6888 2.40778 26.7848 2.34615 27.6792 2.49343C32.9478 3.36162 37.3036 5.83913 40.767 9.8931C43.3338 12.8981 44.9627 16.3475 45.6094 20.2412C45.8009 21.3944 45.8486 22.5714 45.908 23.1795Z" fill="#4640DE"/>
<path d="M2.84912 23.3531C3.20374 16.0302 6.26971 9.89288 12.702 5.63095C15.8128 3.56999 19.2805 2.44043 23.0169 2.15314C23.5219 2.11427 23.7864 2.36395 23.8168 2.75712C23.8756 3.52227 23.8999 4.30544 23.8 5.0627C23.7014 5.81141 23.4198 6.53485 23.2432 7.27535C23.1815 7.53358 23.063 7.62112 22.8032 7.64861C20.6326 7.87965 18.5713 8.48267 16.6668 9.55787C12.0458 12.1665 9.34361 16.1162 8.50294 21.337C8.07942 23.9659 8.3784 26.5363 9.2194 29.0548C9.2684 29.2016 9.25133 29.4576 9.15557 29.5517C8.23271 30.4607 7.24726 31.2991 6.07662 31.8761C5.73022 32.0467 5.33105 32.1354 4.94579 32.1889C4.80895 32.2079 4.55705 32.0453 4.50111 31.9076C3.65093 29.8186 3.09911 27.6558 2.96037 25.3976C2.92466 24.8123 2.89653 24.2264 2.84912 23.3531Z" fill="#4640DE"/>
</g>
<path d="M48.2012 34.8089V17.5053H50.0693V19.5044H50.2987C50.4407 19.286 50.6372 19.0074 50.8885 18.6687C51.1452 18.3246 51.5112 18.0187 51.9864 17.7511C52.4671 17.478 53.1171 17.3415 53.9363 17.3415C54.9961 17.3415 55.93 17.6064 56.7383 18.1362C57.5468 18.666 58.1776 19.417 58.631 20.3893C59.0843 21.3615 59.3111 22.5085 59.3111 23.8304C59.3111 25.1632 59.0843 26.3182 58.631 27.296C58.1776 28.2683 57.5494 29.0221 56.7466 29.5574C55.9437 30.0871 55.0179 30.3519 53.9692 30.3519C53.1607 30.3519 52.5136 30.2182 52.0274 29.9506C51.5413 29.6775 51.1672 29.3689 50.9051 29.0247C50.6429 28.6751 50.4407 28.3857 50.2987 28.1562H50.1349V34.8089H48.2012ZM50.102 23.7976C50.102 24.7479 50.2413 25.5865 50.5199 26.3128C50.7984 27.0339 51.2054 27.5992 51.7406 28.0088C52.2758 28.4129 52.9315 28.6151 53.7071 28.6151C54.5154 28.6151 55.19 28.402 55.7307 27.9761C56.2768 27.5444 56.6866 26.9656 56.9597 26.2391C57.2382 25.5071 57.3773 24.6934 57.3773 23.7976C57.3773 22.9127 57.2408 22.1153 56.9677 21.4052C56.7001 20.6897 56.2931 20.1244 55.747 19.7093C55.2063 19.2887 54.5263 19.0784 53.7071 19.0784C52.9203 19.0784 52.2595 19.2777 51.7243 19.6765C51.189 20.0698 50.7849 20.6214 50.5116 21.3315C50.2385 22.0361 50.102 22.8581 50.102 23.7976ZM62.2605 30.0897V17.5053H64.1286V19.4061H64.2597C64.4889 18.7834 64.9042 18.2782 65.5049 17.8904C66.1058 17.5026 66.783 17.3087 67.5368 17.3087C67.6787 17.3087 67.8563 17.3114 68.0694 17.3169C68.2825 17.3224 68.4434 17.3305 68.5527 17.3415V19.3078C68.4873 19.2914 68.337 19.2668 68.1021 19.2341C67.8726 19.1958 67.6297 19.1767 67.373 19.1767C66.7612 19.1767 66.215 19.3051 65.7343 19.5618C65.2591 19.813 64.8822 20.1626 64.6037 20.6105C64.3306 21.0529 64.1941 21.5582 64.1941 22.1262V30.0897H62.2605ZM70.8448 30.0897V17.5053H72.7784V30.0897H70.8448ZM71.8278 15.4079C71.4509 15.4079 71.126 15.2795 70.8529 15.0228C70.5853 14.7661 70.4516 14.4575 70.4516 14.097C70.4516 13.7365 70.5853 13.4279 70.8529 13.1712C71.126 12.9145 71.4509 12.7861 71.8278 12.7861C72.2047 12.7861 72.5271 12.9145 72.7947 13.1712C73.0678 13.4279 73.2043 13.7365 73.2043 14.097C73.2043 14.4575 73.0678 14.7661 72.7947 15.0228C72.5271 15.2795 72.2047 15.4079 71.8278 15.4079ZM78.2534 22.5195V30.0897H76.3197V17.5053H78.1878V19.4717H78.3516C78.6467 18.8326 79.0944 18.3192 79.6953 17.9314C80.2962 17.5381 81.0718 17.3415 82.0221 17.3415C82.8742 17.3415 83.6197 17.5163 84.2588 17.8658C84.8978 18.2099 85.3949 18.7343 85.75 19.4389C86.1051 20.138 86.2826 21.0229 86.2826 22.0934V30.0897H84.3488V22.2245C84.3488 21.2359 84.0921 20.4658 83.5787 19.9141C83.0653 19.357 82.3608 19.0784 81.4651 19.0784C80.8478 19.0784 80.2962 19.2122 79.8101 19.4798C79.3294 19.7475 78.9498 20.138 78.6711 20.6514C78.3926 21.1649 78.2534 21.7876 78.2534 22.5195ZM95.2888 17.5053V19.1439H88.767V17.5053H95.2888ZM90.6678 14.4903H92.6013V26.4849C92.6013 27.031 92.6807 27.4409 92.839 27.7139C93.0028 27.9815 93.2105 28.1617 93.4617 28.2546C93.7184 28.3421 93.9887 28.3857 94.2729 28.3857C94.4857 28.3857 94.6607 28.3748 94.7972 28.353C94.9337 28.3257 95.043 28.3037 95.1248 28.2873L95.518 30.0243C95.3869 30.0734 95.204 30.1227 94.9693 30.1718C94.7344 30.2263 94.4367 30.2538 94.0761 30.2538C93.53 30.2538 92.9948 30.1362 92.4702 29.9013C91.9513 29.6666 91.5199 29.3087 91.1757 28.828C90.8373 28.3475 90.6678 27.7412 90.6678 27.0092V14.4903ZM103.338 30.3519C102.126 30.3519 101.08 30.0843 100.2 29.5491C99.3265 29.0084 98.6519 28.2546 98.1766 27.2877C97.7071 26.3156 97.4722 25.185 97.4722 23.8959C97.4722 22.6069 97.7071 21.4708 98.1766 20.4876C98.6519 19.499 99.3128 18.7288 100.159 18.1772C101.012 17.62 102.006 17.3415 103.142 17.3415C103.797 17.3415 104.444 17.4507 105.083 17.6692C105.722 17.8877 106.304 18.2427 106.828 18.7343C107.353 19.2204 107.771 19.8649 108.082 20.6679C108.393 21.4708 108.549 22.4594 108.549 23.6337V24.453H98.8486V22.7817H106.583C106.583 22.0716 106.441 21.438 106.157 20.8809C105.878 20.3237 105.48 19.884 104.961 19.5618C104.447 19.2395 103.841 19.0784 103.142 19.0784C102.371 19.0784 101.705 19.2696 101.143 19.6519C100.585 20.0288 100.157 20.5204 99.8563 21.1267C99.556 21.7329 99.4057 22.3829 99.4057 23.0766V24.1908C99.4057 25.1414 99.5695 25.9468 99.8973 26.6079C100.231 27.2633 100.692 27.763 101.282 28.1072C101.872 28.4457 102.557 28.6151 103.338 28.6151C103.846 28.6151 104.305 28.544 104.715 28.402C105.13 28.2546 105.488 28.0361 105.788 27.7466C106.088 27.4518 106.321 27.0858 106.485 26.6487L108.352 27.173C108.156 27.8066 107.825 28.3639 107.361 28.8446C106.897 29.3196 106.323 29.691 105.641 29.9587C104.958 30.2208 104.191 30.3519 103.338 30.3519ZM111.491 30.0897V17.5053H113.358V19.4061H113.489C113.719 18.7834 114.134 18.2782 114.735 17.8904C115.336 17.5026 116.013 17.3087 116.767 17.3087C116.909 17.3087 117.086 17.3114 117.299 17.3169C117.512 17.3224 117.673 17.3305 117.783 17.3415V19.3078C117.717 19.2914 117.567 19.2668 117.332 19.2341C117.103 19.1958 116.86 19.1767 116.603 19.1767C115.991 19.1767 115.445 19.3051 114.964 19.5618C114.489 19.813 114.112 20.1626 113.834 20.6105C113.561 21.0529 113.424 21.5582 113.424 22.1262V30.0897H111.491ZM128.989 20.3237L127.252 20.8153C127.143 20.5258 126.981 20.2445 126.769 19.9714C126.561 19.6929 126.277 19.4635 125.916 19.2832C125.556 19.103 125.094 19.0128 124.532 19.0128C123.761 19.0128 123.12 19.1904 122.606 19.5454C122.098 19.895 121.844 20.3401 121.844 20.8809C121.844 21.3615 122.019 21.7411 122.369 22.0197C122.718 22.2983 123.265 22.5304 124.007 22.7161L125.875 23.1749C127.001 23.448 127.839 23.8659 128.391 24.4283C128.942 24.9856 129.218 25.7038 129.218 26.5833C129.218 27.3043 129.011 27.9488 128.595 28.5168C128.186 29.0849 127.612 29.5327 126.875 29.8605C126.138 30.1881 125.28 30.3519 124.302 30.3519C123.019 30.3519 121.956 30.0734 121.115 29.5164C120.274 28.9593 119.742 28.1453 119.518 27.0749L121.353 26.616C121.528 27.2932 121.858 27.8011 122.344 28.1399C122.836 28.4786 123.477 28.6478 124.269 28.6478C125.171 28.6478 125.886 28.4568 126.416 28.0745C126.952 27.6867 127.219 27.2223 127.219 26.6816C127.219 26.2445 127.066 25.8785 126.76 25.5837C126.454 25.2833 125.985 25.0593 125.351 24.9119L123.254 24.4203C122.101 24.1472 121.255 23.7239 120.714 23.1503C120.178 22.5714 119.911 21.8476 119.911 20.9792C119.911 20.2691 120.11 19.641 120.509 19.0948C120.913 18.5486 121.462 18.1198 122.156 17.8085C122.855 17.4971 123.647 17.3415 124.532 17.3415C125.777 17.3415 126.755 17.6146 127.465 18.1608C128.18 18.707 128.688 19.428 128.989 20.3237Z" fill="#4640DE"/>
</g>
<mask id="mask3_31891_195" style="mask-type:luminance" maskUnits="userSpaceOnUse" x="47" y="33" width="114" height="20">
<path d="M160.668 33.9557H47.3643V52.9187H160.668V33.9557Z" fill="white"/>
</mask>
<g mask="url(#mask3_31891_195)">
<path d="M20.9419 38.3646V21.061H22.8099V23.0601H23.0393C23.1813 22.8416 23.378 22.563 23.6292 22.2244C23.8859 21.8803 24.2519 21.5744 24.7271 21.3068C25.2078 21.0337 25.8577 20.8971 26.6769 20.8971C27.7367 20.8971 28.6707 21.162 29.4789 21.6919C30.2875 22.2217 30.9182 22.9727 31.3717 23.9449C31.8249 24.9172 32.0517 26.0642 32.0517 27.386C32.0517 28.7188 31.8249 29.8739 31.3717 30.8517C30.9182 31.824 30.2901 32.5778 29.4872 33.113C28.6844 33.6428 27.7585 33.9076 26.7099 33.9076C25.9013 33.9076 25.2542 33.7739 24.7681 33.5063C24.2819 33.2332 23.9078 32.9246 23.6456 32.5804C23.3834 32.2308 23.1813 31.9413 23.0393 31.7119H22.8755V38.3646H20.9419ZM22.8427 27.3533C22.8427 28.3035 22.982 29.1422 23.2605 29.8685C23.5391 30.5895 23.946 31.1549 24.4813 31.5645C25.0165 31.9686 25.6721 32.1708 26.4477 32.1708C27.256 32.1708 27.9306 31.9577 28.4713 31.5317C29.0174 31.1001 29.4273 30.5213 29.7003 29.7947C29.9789 29.0628 30.118 28.249 30.118 27.3533C30.118 26.4684 29.9815 25.671 29.7084 24.9608C29.4408 24.2455 29.0338 23.68 28.4877 23.2649C27.947 22.8443 27.2669 22.6341 26.4477 22.6341C25.661 22.6341 25.0001 22.8334 24.4649 23.2322C23.9296 23.6254 23.5254 24.177 23.2523 24.8871C22.9793 25.5918 22.8427 26.4139 22.8427 27.3533ZM35.0012 33.6454V21.061H36.8693V22.9618H37.0004C37.2296 22.3391 37.6449 21.8339 38.2455 21.4461C38.8464 21.0583 39.5236 20.8644 40.2774 20.8644C40.4194 20.8644 40.5969 20.8671 40.81 20.8725C41.0231 20.878 41.1841 20.8862 41.2934 20.8971V22.8635C41.2279 22.8471 41.0776 22.8225 40.8427 22.7897C40.6133 22.7515 40.3703 22.7324 40.1136 22.7324C39.5018 22.7324 38.9557 22.8607 38.475 23.1175C37.9997 23.3687 37.6228 23.7183 37.3443 24.1661C37.0712 24.6086 36.9347 25.1137 36.9347 25.6819V33.6454H35.0012ZM43.5855 33.6454V21.061H45.519V33.6454H43.5855ZM44.5685 18.9636C44.1916 18.9636 43.8666 18.8352 43.5936 18.5785C43.3259 18.3218 43.1923 18.0132 43.1923 17.6527C43.1923 17.2922 43.3259 16.9836 43.5936 16.7269C43.8666 16.4702 44.1916 16.3418 44.5685 16.3418C44.9454 16.3418 45.2677 16.4702 45.5354 16.7269C45.8084 16.9836 45.945 17.2922 45.945 17.6527C45.945 18.0132 45.8084 18.3218 45.5354 18.5785C45.2677 18.8352 44.9454 18.9636 44.5685 18.9636ZM50.9941 26.0752V33.6454H49.0603V21.061H50.9284V23.0273H51.0922C51.3873 22.3883 51.8351 21.8748 52.436 21.487C53.0369 21.0938 53.8125 20.8971 54.7627 20.8971C55.6149 20.8971 56.3604 21.0719 56.9994 21.4215C57.6385 21.7656 58.1355 22.29 58.4906 22.9945C58.8457 23.6937 59.0232 24.5785 59.0232 25.6492V33.6454H57.0895V25.7803C57.0895 24.7916 56.8328 24.0215 56.3194 23.4697C55.8059 22.9126 55.1015 22.6341 54.2057 22.6341C53.5885 22.6341 53.0369 22.7679 52.5507 23.0355C52.07 23.3031 51.6905 23.6937 51.4118 24.2071C51.1332 24.7205 50.9941 25.3432 50.9941 26.0752ZM68.0295 21.061V22.6996H61.5076V21.061H68.0295ZM63.4084 18.046H65.3419V30.0405C65.3419 30.5867 65.4213 30.9965 65.5797 31.2696C65.7435 31.5372 65.9511 31.7173 66.2024 31.8103C66.4591 31.8977 66.7293 31.9413 67.0135 31.9413C67.2264 31.9413 67.4013 31.9304 67.5378 31.9086C67.6744 31.8814 67.7837 31.8593 67.8654 31.843L68.2587 33.58C68.1276 33.629 67.9446 33.6784 67.7099 33.7274C67.475 33.7819 67.1773 33.8094 66.8168 33.8094C66.2707 33.8094 65.7354 33.6919 65.2109 33.457C64.692 33.2223 64.2606 32.8644 63.9164 32.3837C63.5779 31.9032 63.4084 31.2968 63.4084 30.5649V18.046ZM76.079 33.9076C74.8666 33.9076 73.8205 33.64 72.9411 33.1047C72.0672 32.564 71.3925 31.8103 70.9173 30.8434C70.4477 29.8713 70.2128 28.7406 70.2128 27.4516C70.2128 26.1626 70.4477 25.0265 70.9173 24.0433C71.3925 23.0546 72.0534 22.2845 72.9001 21.7328C73.7523 21.1757 74.7464 20.8971 75.8825 20.8971C76.5379 20.8971 77.185 21.0064 77.8241 21.2249C78.4631 21.4433 79.0448 21.7984 79.5691 22.29C80.0937 22.7761 80.5114 23.4206 80.8228 24.2234C81.1341 25.0265 81.2898 26.0149 81.2898 27.1895V28.0087H71.5893V26.3373H79.3236C79.3236 25.6272 79.1813 24.9936 78.8974 24.4365C78.6189 23.8794 78.2202 23.4397 77.7013 23.1175C77.1879 22.7952 76.5815 22.6341 75.8825 22.6341C75.1121 22.6341 74.4458 22.8252 73.8833 23.2076C73.3261 23.5844 72.8975 24.076 72.5969 24.6823C72.2966 25.2887 72.1463 25.9386 72.1463 26.6322V27.7465C72.1463 28.697 72.3101 29.5025 72.6379 30.1636C72.9712 30.819 73.4327 31.3187 74.0225 31.6628C74.6125 32.0013 75.298 32.1708 76.079 32.1708C76.587 32.1708 77.0459 32.0997 77.4555 31.9577C77.8705 31.8103 78.2282 31.5917 78.5288 31.3023C78.8291 31.0074 79.0612 30.6414 79.2252 30.2043L81.0931 30.7287C80.8965 31.3623 80.5661 31.9195 80.1018 32.4003C79.6376 32.8753 79.064 33.2467 78.3813 33.5143C77.6984 33.7765 76.9312 33.9076 76.079 33.9076ZM84.2312 33.6454V21.061H86.099V22.9618H86.2301C86.4596 22.3391 86.8746 21.8339 87.4755 21.4461C88.0764 21.0583 88.7536 20.8644 89.5074 20.8644C89.6494 20.8644 89.8269 20.8671 90.04 20.8725C90.2529 20.878 90.4141 20.8862 90.5233 20.8971V22.8635C90.4579 22.8471 90.3076 22.8225 90.0727 22.7897C89.8433 22.7515 89.6003 22.7324 89.3436 22.7324C88.7318 22.7324 88.1857 22.8607 87.705 23.1175C87.2297 23.3687 86.8528 23.7183 86.5743 24.1661C86.3012 24.6086 86.1647 25.1137 86.1647 25.6819V33.6454H84.2312ZM101.729 23.8794L99.9925 24.3711C99.8832 24.0814 99.722 23.8002 99.5092 23.5271C99.3015 23.2485 99.0176 23.0191 98.657 22.8389C98.2965 22.6586 97.835 22.5685 97.2722 22.5685C96.5021 22.5685 95.8605 22.746 95.347 23.1011C94.8391 23.4506 94.585 23.8958 94.585 24.4365C94.585 24.9172 94.7599 25.2967 95.1093 25.5752C95.4589 25.854 96.0053 26.0861 96.7479 26.2717L98.616 26.7306C99.7412 27.0036 100.58 27.4215 101.131 27.984C101.683 28.5413 101.959 29.2595 101.959 30.1389C101.959 30.86 101.751 31.5045 101.336 32.0724C100.926 32.6406 100.353 33.0884 99.6156 33.4162C98.8782 33.7438 98.0206 33.9076 97.043 33.9076C95.7595 33.9076 94.6971 33.6291 93.8558 33.072C93.0148 32.515 92.4822 31.701 92.2582 30.6305L94.0936 30.1716C94.2683 30.8488 94.5987 31.3568 95.0849 31.6955C95.5765 32.0343 96.2181 32.2035 97.0101 32.2035C97.9115 32.2035 98.6269 32.0125 99.1567 31.6301C99.6922 31.2423 99.9598 30.778 99.9598 30.2373C99.9598 29.8002 99.8066 29.4342 99.5009 29.1393C99.1951 28.839 98.7253 28.615 98.0917 28.4676L95.9941 27.976C94.8417 27.7029 93.9952 27.2795 93.4543 26.7059C92.9191 26.1271 92.6515 25.4034 92.6515 24.5349C92.6515 23.8248 92.8508 23.1966 93.2495 22.6504C93.6539 22.1042 94.2026 21.6755 94.8964 21.3641C95.5955 21.0528 96.3876 20.8971 97.2722 20.8971C98.5176 20.8971 99.4954 21.1702 100.206 21.7164C100.921 22.2626 101.429 22.9836 101.729 23.8794Z" fill="#4640DE"/>
<path d="M48.1753 42.7246V36.5185H53.0561V42.7246H52.1025V37.4074H49.1289V42.7246H48.1753ZM57.3996 42.854C56.8015 42.854 56.2858 42.722 55.852 42.458C55.421 42.1913 55.0885 41.8196 54.854 41.3429C54.6225 40.8634 54.5066 40.3059 54.5066 39.6702C54.5066 39.0344 54.6225 38.4741 54.854 37.9893C55.0885 37.5017 55.4144 37.122 55.8318 36.8499C56.2521 36.5752 56.7423 36.4377 57.3026 36.4377C57.6257 36.4377 57.945 36.4917 58.26 36.5993C58.5753 36.7072 58.8621 36.8821 59.1207 37.1246C59.3793 37.3645 59.5853 37.6821 59.7389 38.0782C59.8925 38.4741 59.9693 38.9617 59.9693 39.5407V39.9449H55.1854V39.1207H58.9996C58.9996 38.7704 58.9294 38.458 58.7893 38.1832C58.6521 37.9085 58.4554 37.6916 58.1996 37.5328C57.9464 37.3737 57.6473 37.2943 57.3026 37.2943C56.9227 37.2943 56.5941 37.3887 56.3168 37.5771C56.0421 37.763 55.8304 38.0054 55.6823 38.3043C55.5341 38.6035 55.4602 38.924 55.4602 39.266V39.8155C55.4602 40.2843 55.541 40.6816 55.7026 41.0075C55.8669 41.3306 56.0945 41.5771 56.3853 41.7468C56.6764 41.914 57.0144 41.9974 57.3996 41.9974C57.6501 41.9974 57.8763 41.9623 58.0782 41.8924C58.283 41.8196 58.4594 41.7118 58.6075 41.5691C58.7557 41.4238 58.8702 41.2431 58.951 41.0277L59.8724 41.2863C59.7754 41.5987 59.6123 41.8734 59.3834 42.1105C59.1544 42.3449 58.8716 42.5281 58.535 42.6599C58.1982 42.7893 57.8199 42.854 57.3996 42.854ZM61.4197 45.0518V36.5185H62.3409V37.5043H62.4542C62.5241 37.3967 62.621 37.2593 62.745 37.0924C62.8716 36.9227 63.052 36.7719 63.2864 36.6399C63.5234 36.5052 63.8439 36.4377 64.2481 36.4377C64.7705 36.4377 65.2313 36.5685 65.6297 36.8297C66.0284 37.091 66.3397 37.4614 66.5632 37.9407C66.7867 38.4203 66.8986 38.9858 66.8986 39.6377C66.8986 40.295 66.7867 40.8648 66.5632 41.347C66.3397 41.8262 66.0299 42.1982 65.6338 42.462C65.2379 42.7232 64.7814 42.854 64.2642 42.854C63.8655 42.854 63.5464 42.7879 63.3066 42.6559C63.0669 42.5212 62.8823 42.3691 62.7531 42.1993C62.6239 42.027 62.5241 41.8843 62.4542 41.771H62.3733V45.0518H61.4197ZM62.3572 39.6216C62.3572 40.0904 62.4257 40.5038 62.5632 40.862C62.7004 41.2175 62.9012 41.4963 63.1653 41.6985C63.4291 41.8978 63.7524 41.9974 64.135 41.9974C64.5335 41.9974 64.8663 41.8924 65.1329 41.6821C65.4022 41.4695 65.6041 41.1839 65.739 40.8257C65.8763 40.4647 65.945 40.0634 65.945 39.6216C65.945 39.1852 65.8777 38.7919 65.7431 38.4418C65.611 38.0889 65.4103 37.8101 65.141 37.6056C64.8743 37.3982 64.5389 37.2943 64.135 37.2943C63.747 37.2943 63.421 37.3927 63.1572 37.5892C62.8932 37.7833 62.6938 38.0552 62.5592 38.4056C62.4245 38.7528 62.3572 39.1584 62.3572 39.6216ZM70.955 42.854C70.3572 42.854 69.8412 42.722 69.4076 42.458C68.9767 42.1913 68.6439 41.8196 68.4097 41.3429C68.1779 40.8634 68.0622 40.3059 68.0622 39.6702C68.0622 39.0344 68.1779 38.4741 68.4097 37.9893C68.6439 37.5017 68.9698 37.122 69.3875 36.8499C69.8075 36.5752 70.298 36.4377 70.8581 36.4377C71.1814 36.4377 71.5004 36.4917 71.8157 36.5993C72.131 36.7072 72.4178 36.8821 72.6764 37.1246C72.935 37.3645 73.141 37.6821 73.2946 38.0782C73.4479 38.4741 73.5247 38.9617 73.5247 39.5407V39.9449H68.7409V39.1207H72.555C72.555 38.7704 72.4851 38.458 72.345 38.1832C72.2075 37.9085 72.011 37.6916 71.755 37.5328C71.5019 37.3737 71.203 37.2943 70.8581 37.2943C70.4783 37.2943 70.1498 37.3887 69.8722 37.5771C69.5975 37.763 69.3861 38.0054 69.2379 38.3043C69.0898 38.6035 69.0156 38.924 69.0156 39.266V39.8155C69.0156 40.2843 69.0964 40.6816 69.2581 41.0075C69.4223 41.3306 69.6501 41.5771 69.941 41.7468C70.2318 41.914 70.5698 41.9974 70.955 41.9974C71.2056 41.9974 71.4319 41.9623 71.6339 41.8924C71.8387 41.8196 72.0151 41.7118 72.1632 41.5691C72.3114 41.4238 72.4258 41.2431 72.5067 41.0277L73.4278 41.2863C73.3308 41.5987 73.168 41.8734 72.939 42.1105C72.71 42.3449 72.4273 42.5281 72.0904 42.6599C71.7538 42.7893 71.3753 42.854 70.955 42.854ZM74.9754 42.7246V36.5185H77.5127C78.1806 36.5185 78.7114 36.6695 79.1046 36.971C79.4978 37.2728 79.6946 37.6715 79.6946 38.1671C79.6946 38.5442 79.5827 38.8365 79.3592 39.0439C79.1356 39.2485 78.8486 39.3874 78.4985 39.4599C78.7275 39.4924 78.9498 39.5732 79.1653 39.7024C79.3833 39.8318 79.5637 40.0096 79.7067 40.2357C79.8494 40.4593 79.9207 40.734 79.9207 41.0599C79.9207 41.3778 79.8399 41.662 79.6782 41.9125C79.5168 42.1631 79.285 42.361 78.9835 42.5065C78.6817 42.6518 78.3207 42.7246 77.9004 42.7246H74.9754ZM75.8804 41.8518H77.9004C78.2292 41.8518 78.4864 41.7739 78.6722 41.6177C78.8581 41.4614 78.951 41.2486 78.951 40.9793C78.951 40.6586 78.8581 40.4069 78.6722 40.2236C78.4864 40.0378 78.2292 39.9449 77.9004 39.9449H75.8804V41.8518ZM75.8804 39.1207H77.5127C77.7687 39.1207 77.9881 39.0856 78.1711 39.0155C78.3544 38.9429 78.4945 38.8405 78.5914 38.7085C78.6912 38.5739 78.741 38.4148 78.741 38.2318C78.741 37.9704 78.6319 37.7658 78.4136 37.6177C78.1956 37.4667 77.8952 37.3913 77.5127 37.3913H75.8804V39.1207ZM81.3643 42.7246V36.5185H82.3176V42.7246H81.3643ZM81.849 35.4843C81.6632 35.4843 81.5029 35.421 81.3683 35.2945C81.2363 35.1676 81.1701 35.0155 81.1701 34.8377C81.1701 34.6599 81.2363 34.5077 81.3683 34.3811C81.5029 34.2546 81.6632 34.1913 81.849 34.1913C82.0348 34.1913 82.1939 34.2546 82.3257 34.3811C82.4606 34.5077 82.5279 34.6599 82.5279 34.8377C82.5279 35.0155 82.4606 35.1676 82.3257 35.2945C82.1939 35.421 82.0348 35.4843 81.849 35.4843ZM83.6763 41.1407H84.6944C84.716 41.4209 84.8426 41.6338 85.0744 41.7793C85.3086 41.9246 85.6129 41.9974 85.9874 41.9974C86.37 41.9974 86.6971 41.9192 86.9692 41.763C87.2414 41.6041 87.3774 41.3481 87.3774 40.9954C87.3774 40.788 87.3262 40.6074 87.2238 40.454C87.1214 40.2978 86.9773 40.1765 86.7915 40.0904C86.6056 40.0041 86.3861 39.961 86.133 39.961H85.0663V39.1043H86.133C86.5127 39.1043 86.7929 39.0183 86.9733 38.846C87.1565 38.6734 87.248 38.458 87.248 38.1993C87.248 37.922 87.1496 37.6997 86.9531 37.5328C86.7564 37.3631 86.4776 37.2782 86.1166 37.2782C85.753 37.2782 85.4501 37.3602 85.2076 37.5247C84.9651 37.6862 84.8373 37.895 84.8238 38.151H83.8219C83.8325 37.817 83.9349 37.5219 84.1288 37.2661C84.3227 37.0075 84.5868 36.8056 84.9208 36.66C85.2548 36.5119 85.6373 36.4377 86.0683 36.4377C86.5047 36.4377 86.883 36.5145 87.2037 36.6681C87.5268 36.8188 87.7759 37.0251 87.9511 37.2863C88.1288 37.5449 88.2177 37.8386 88.2177 38.1671C88.2177 38.5172 88.1194 38.8 87.9228 39.0155C87.7261 39.2312 87.4796 39.3845 87.1833 39.4763V39.5407C87.4177 39.5571 87.6211 39.6325 87.7934 39.7671C87.9686 39.8991 88.1047 40.0729 88.2016 40.2884C88.2985 40.501 88.3469 40.7368 88.3469 40.9954C88.3469 41.3726 88.2459 41.7011 88.044 41.9813C87.842 42.2586 87.5644 42.4741 87.2117 42.6277C86.8588 42.7784 86.4561 42.854 86.0036 42.854C85.5646 42.854 85.1713 42.7825 84.8238 42.6398C84.4763 42.4945 84.2002 42.2937 83.9954 42.0377C83.7934 41.7793 83.687 41.4802 83.6763 41.1407ZM93.84 39.1852V40.0741H90.4136V39.1852H93.84ZM90.64 36.5185V42.7246H89.6864V36.5185H90.64ZM94.5672 36.5185V42.7246H93.6136V36.5185H94.5672ZM97.2621 41.3185L100.252 36.5185H101.351V42.7246H100.398V37.9246L97.4238 42.7246H96.3087V36.5185H97.2621V41.3185ZM103.097 42.7246V36.5185H104.051V39.2177H104.681L106.912 36.5185H108.14L105.635 39.5085L108.172 42.7246H106.944L104.908 40.1065H104.051V42.7246H103.097ZM110.162 41.3185L113.152 36.5185H114.251V42.7246H113.297V37.9246L110.324 42.7246H109.209V36.5185H110.162V41.3185ZM122.187 42.8377C121.565 42.8377 121.014 42.6774 120.535 42.357C120.055 42.0337 119.68 41.5892 119.408 41.0236C119.138 40.4581 119.004 39.8074 119.004 39.0721V38.2963C119.004 37.5233 119.144 36.8392 119.424 36.2438C119.707 35.6486 120.096 35.1826 120.592 34.846C121.087 34.5065 121.657 34.3368 122.301 34.3368C122.861 34.3368 123.359 34.4473 123.796 34.6682C124.232 34.8863 124.579 35.2001 124.838 35.6095C125.099 36.0162 125.245 36.5024 125.274 37.0682H124.224C124.197 36.6963 124.092 36.3772 123.909 36.1106C123.725 35.8411 123.492 35.6351 123.21 35.4924C122.929 35.3468 122.626 35.2741 122.301 35.2741C121.854 35.2741 121.456 35.4035 121.109 35.6621C120.764 35.9179 120.493 36.2734 120.296 36.7288C120.103 37.1839 120.006 37.7065 120.006 38.2963V39.0721C120.006 39.627 120.098 40.1186 120.284 40.547C120.47 40.975 120.728 41.3105 121.056 41.5529C121.385 41.7954 121.762 41.9166 122.187 41.9166C122.532 41.9166 122.853 41.8452 123.149 41.7025C123.448 41.5596 123.695 41.355 123.888 41.0884C124.082 40.8217 124.194 40.5052 124.224 40.1388H125.274C125.242 40.6963 125.09 41.1772 124.818 41.5811C124.548 41.9853 124.187 42.2963 123.735 42.5146C123.282 42.7301 122.767 42.8377 122.187 42.8377ZM119.844 39.1043V38.1832H123.286V39.1043H119.844ZM126.764 42.7246V36.5185H129.301C129.97 36.5185 130.5 36.6695 130.893 36.971C131.287 37.2728 131.483 37.6715 131.483 38.1671C131.483 38.5442 131.371 38.8365 131.148 39.0439C130.924 39.2485 130.638 39.3874 130.288 39.4599C130.516 39.4924 130.739 39.5732 130.954 39.7024C131.172 39.8318 131.353 40.0096 131.495 40.2357C131.638 40.4593 131.71 40.734 131.71 41.0599C131.71 41.3778 131.629 41.662 131.467 41.9125C131.306 42.1631 131.074 42.361 130.772 42.5065C130.471 42.6518 130.11 42.7246 129.689 42.7246H126.764ZM127.669 41.8518H129.689C130.018 41.8518 130.275 41.7739 130.461 41.6177C130.647 41.4614 130.74 41.2486 130.74 40.9793C130.74 40.6586 130.647 40.4069 130.461 40.2236C130.275 40.0378 130.018 39.9449 129.689 39.9449H127.669V41.8518ZM127.669 39.1207H129.301C129.557 39.1207 129.777 39.0856 129.96 39.0155C130.143 38.9429 130.283 38.8405 130.38 38.7085C130.48 38.5739 130.53 38.4148 130.53 38.2318C130.53 37.9704 130.421 37.7658 130.203 37.6177C129.984 37.4667 129.684 37.3913 129.301 37.3913H127.669V39.1207ZM133.153 45.0518V36.5185H134.074V37.5043H134.187C134.257 37.3967 134.354 37.2593 134.478 37.0924C134.605 36.9227 134.785 36.7719 135.02 36.6399C135.257 36.5052 135.577 36.4377 135.981 36.4377C136.504 36.4377 136.965 36.5685 137.363 36.8297C137.762 37.091 138.073 37.4614 138.297 37.9407C138.52 38.4203 138.632 38.9858 138.632 39.6377C138.632 40.295 138.52 40.8648 138.297 41.347C138.073 41.8262 137.763 42.1982 137.367 42.462C136.971 42.7232 136.515 42.854 135.998 42.854C135.599 42.854 135.28 42.7879 135.04 42.6559C134.8 42.5212 134.616 42.3691 134.486 42.1993C134.357 42.027 134.257 41.8843 134.187 41.771H134.107V45.0518H133.153ZM134.091 39.6216C134.091 40.0904 134.159 40.5038 134.297 40.862C134.434 41.2175 134.635 41.4963 134.899 41.6985C135.162 41.8978 135.486 41.9974 135.868 41.9974C136.267 41.9974 136.6 41.8924 136.866 41.6821C137.136 41.4695 137.337 41.1839 137.472 40.8257C137.61 40.4647 137.678 40.0634 137.678 39.6216C137.678 39.1852 137.611 38.7919 137.476 38.4418C137.344 38.0889 137.144 37.8101 136.874 37.6056C136.608 37.3982 136.272 37.2943 135.868 37.2943C135.48 37.2943 135.154 37.3927 134.891 37.5892C134.626 37.7833 134.427 38.0552 134.293 38.4056C134.158 38.7528 134.091 39.1584 134.091 39.6216ZM142.608 42.854C142.047 42.854 141.556 42.7206 141.133 42.4539C140.713 42.1873 140.384 41.8142 140.147 41.3349C139.913 40.8553 139.796 40.295 139.796 39.654C139.796 39.0074 139.913 38.4433 140.147 37.9611C140.384 37.4787 140.713 37.1045 141.133 36.8378C141.556 36.5711 142.047 36.4377 142.608 36.4377C143.168 36.4377 143.658 36.5711 144.078 36.8378C144.501 37.1045 144.83 37.4787 145.064 37.9611C145.301 38.4433 145.42 39.0074 145.42 39.654C145.42 40.295 145.301 40.8553 145.064 41.3349C144.83 41.8142 144.501 42.1873 144.078 42.4539C143.658 42.7206 143.168 42.854 142.608 42.854ZM142.608 41.9974C143.033 41.9974 143.383 41.8883 143.658 41.67C143.933 41.452 144.136 41.1651 144.268 40.8096C144.4 40.454 144.466 40.0689 144.466 39.654C144.466 39.2392 144.4 38.8526 144.268 38.4945C144.136 38.1361 143.933 37.8466 143.658 37.6257C143.383 37.4048 143.033 37.2943 142.608 37.2943C142.182 37.2943 141.832 37.4048 141.557 37.6257C141.282 37.8466 141.079 38.1361 140.947 38.4945C140.815 38.8526 140.749 39.2392 140.749 39.654C140.749 40.0689 140.815 40.454 140.947 40.8096C141.079 41.1651 141.282 41.452 141.557 41.67C141.832 41.8883 142.182 41.9974 142.608 41.9974ZM146.875 42.7246V36.5185H151.756V42.7246H150.803V37.4074H147.829V42.7246H146.875ZM154.451 41.3185L157.441 36.5185H158.54V42.7246H157.586V37.9246L154.613 42.7246H153.497V36.5185H154.451V41.3185Z" fill="#4640DE"/>
</g>
<mask id="mask4_31891_195" style="mask-type:luminance" maskUnits="userSpaceOnUse" x="0" y="30" width="51" height="20">
<path d="M50.4457 30.4H0.667969V49.363H50.4457V30.4Z" fill="white"/>
</mask>
<g mask="url(#mask4_31891_195)">
<mask id="mask5_31891_195" style="mask-type:luminance" maskUnits="userSpaceOnUse" x="-25" y="-59" width="716" height="457">
<path d="M-24.9321 -58.9629H690.287V397.096H-24.9321V-58.9629Z" fill="white"/>
</mask>
<g mask="url(#mask5_31891_195)">
<path d="M34.1132 16.2238C33.147 17.4915 32.2382 18.6966 31.3083 19.8853C31.2218 19.9959 31.0033 20.0506 30.8456 20.0512C27.6857 20.0651 24.526 20.0657 21.3661 20.0743C20.9701 20.0752 20.5731 20.091 20.1787 20.1255C19.5652 20.1786 19.2271 20.5095 19.1958 21.0534C19.1632 21.6201 19.4287 21.9623 20.0422 22.0951C20.2975 22.1504 20.5652 22.1703 20.8272 22.1709C23.5316 22.1776 26.236 22.1732 28.9401 22.1795C30.3197 22.1829 31.6646 22.3473 32.8853 23.0676C33.8406 23.6311 34.3981 24.4734 34.4896 25.5564C34.5482 26.249 34.5074 26.9689 34.3834 27.6535C34.144 28.9742 33.3291 29.8837 32.1169 30.441C31.1142 30.9018 30.0523 31.1322 28.9553 31.1348C24.1495 31.1462 19.3434 31.1377 14.5375 31.1353C14.4945 31.1353 14.4519 31.1218 14.3555 31.1054C14.4203 30.9945 14.4645 30.8959 14.5287 30.812C15.3415 29.7524 16.1623 28.699 16.967 27.6328C17.1266 27.4212 17.2989 27.3512 17.5583 27.3519C21.1445 27.3567 24.7308 27.3541 28.3167 27.3446C28.6519 27.3436 28.9946 27.3178 29.3201 27.2441C29.8797 27.1175 30.1423 26.7309 30.1272 26.1466C30.1139 25.6465 29.8489 25.3317 29.2923 25.2252C28.9785 25.1653 28.6523 25.1473 28.3311 25.1463C25.5976 25.139 22.8638 25.1506 20.13 25.1323C19.113 25.1255 18.1133 24.9714 17.1655 24.566C15.8634 24.0088 15.0467 23.0524 14.8362 21.6466C14.5957 20.042 14.9405 18.6021 16.2404 17.519C17.0773 16.8215 18.0959 16.5143 19.1534 16.3692C19.9072 16.2662 20.6733 16.2058 21.434 16.2039C25.5637 16.1929 29.6936 16.2058 33.8238 16.2112C33.8939 16.2112 33.9641 16.2172 34.1132 16.2238Z" fill="#4640DE"/>
<path d="M45.908 23.1795C45.8742 27.0918 45.1732 30.2847 43.7195 33.3065C43.476 33.8128 43.2788 33.9476 42.7495 33.739C42.1844 33.5162 41.6141 33.2325 41.1481 32.8513C40.4126 32.2495 39.7572 31.5491 39.0833 30.8749C39.0119 30.8036 38.993 30.6042 39.0375 30.503C40.071 28.1561 40.5719 25.7056 40.4664 23.1419C40.3405 20.0813 39.4277 17.2722 37.6954 14.7391C36.4021 12.8478 34.7827 11.2884 32.8272 10.0928C31.1224 9.0505 29.2899 8.31695 27.3158 7.96613C27.0567 7.92 26.9136 7.80938 26.8818 7.56002C26.7287 6.34195 26.5727 5.12422 26.4352 3.9046C26.4129 3.70674 26.4625 3.49594 26.504 3.2965C26.6888 2.40778 26.7848 2.34615 27.6792 2.49343C32.9478 3.36162 37.3036 5.83913 40.767 9.8931C43.3338 12.8981 44.9627 16.3475 45.6094 20.2412C45.8009 21.3944 45.8486 22.5714 45.908 23.1795Z" fill="#4640DE"/>
<path d="M24.158 45.2324C18.1471 45.1461 13.0432 42.9227 8.8375 38.6584C7.93486 37.7439 7.1909 36.6744 6.35589 35.6911C6.06355 35.3463 6.09704 35.0125 6.39571 34.7653C6.84229 34.3962 7.31006 33.998 7.83879 33.7948C8.80749 33.4227 9.82485 33.1762 10.8292 32.9038C10.9288 32.8766 11.1197 33.0012 11.1978 33.1074C12.7325 35.1841 14.6228 36.85 16.9221 38.0354C18.7257 38.9656 20.6397 39.521 22.6666 39.7248C25.4475 40.0045 28.1099 39.5786 30.6697 38.4865C32.9075 37.5317 34.8268 36.1268 36.4211 34.2922C36.6824 33.9911 36.9125 33.888 37.2842 34.048C38.293 34.4823 39.3113 34.8956 40.3221 35.3261C40.4683 35.3882 40.5989 35.4923 40.7279 35.589C41.6639 36.2887 41.694 36.5051 40.9595 37.3819C37.8709 41.07 33.9825 43.4842 29.3091 44.621C27.6219 45.0316 25.9038 45.2471 24.158 45.2324Z" fill="#4640DE"/>
<path d="M2.84912 23.3531C3.20374 16.0302 6.26971 9.89288 12.702 5.63095C15.8128 3.56999 19.2805 2.44043 23.0169 2.15314C23.5219 2.11427 23.7864 2.36395 23.8168 2.75712C23.8756 3.52227 23.8999 4.30544 23.8 5.0627C23.7014 5.81141 23.4198 6.53485 23.2432 7.27535C23.1815 7.53358 23.063 7.62112 22.8032 7.64861C20.6326 7.87965 18.5713 8.48267 16.6668 9.55787C12.0458 12.1665 9.34361 16.1162 8.50294 21.337C8.07942 23.9659 8.3784 26.5363 9.2194 29.0548C9.2684 29.2016 9.25133 29.4576 9.15557 29.5517C8.23271 30.4607 7.24726 31.2991 6.07662 31.8761C5.73022 32.0467 5.33105 32.1354 4.94579 32.1889C4.80895 32.2079 4.55705 32.0453 4.50111 31.9076C3.65093 29.8186 3.09911 27.6558 2.96037 25.3976C2.92466 24.8123 2.89653 24.2264 2.84912 23.3531Z" fill="#4640DE"/>
</g>
<path d="M48.2012 34.8089V17.5053H50.0693V19.5044H50.2987C50.4407 19.286 50.6372 19.0074 50.8885 18.6687C51.1452 18.3246 51.5112 18.0187 51.9864 17.7511C52.4671 17.478 53.1171 17.3415 53.9363 17.3415C54.9961 17.3415 55.93 17.6064 56.7383 18.1362C57.5468 18.666 58.1776 19.417 58.631 20.3893C59.0843 21.3615 59.3111 22.5085 59.3111 23.8304C59.3111 25.1632 59.0843 26.3182 58.631 27.296C58.1776 28.2683 57.5494 29.0221 56.7466 29.5574C55.9437 30.0871 55.0179 30.3519 53.9692 30.3519C53.1607 30.3519 52.5136 30.2182 52.0274 29.9506C51.5413 29.6775 51.1672 29.3689 50.9051 29.0247C50.6429 28.6751 50.4407 28.3857 50.2987 28.1562H50.1349V34.8089H48.2012ZM50.102 23.7976C50.102 24.7479 50.2413 25.5865 50.5199 26.3128C50.7984 27.0339 51.2054 27.5992 51.7406 28.0088C52.2758 28.4129 52.9315 28.6151 53.7071 28.6151C54.5154 28.6151 55.19 28.402 55.7307 27.9761C56.2768 27.5444 56.6866 26.9656 56.9597 26.2391C57.2382 25.5071 57.3773 24.6934 57.3773 23.7976C57.3773 22.9127 57.2408 22.1153 56.9677 21.4052C56.7001 20.6897 56.2931 20.1244 55.747 19.7093C55.2063 19.2887 54.5263 19.0784 53.7071 19.0784C52.9203 19.0784 52.2595 19.2777 51.7243 19.6765C51.189 20.0698 50.7849 20.6214 50.5116 21.3315C50.2385 22.0361 50.102 22.8581 50.102 23.7976ZM62.2605 30.0897V17.5053H64.1286V19.4061H64.2597C64.4889 18.7834 64.9042 18.2782 65.5049 17.8904C66.1058 17.5026 66.783 17.3087 67.5368 17.3087C67.6787 17.3087 67.8563 17.3114 68.0694 17.3169C68.2825 17.3224 68.4434 17.3305 68.5527 17.3415V19.3078C68.4873 19.2914 68.337 19.2668 68.1021 19.2341C67.8726 19.1958 67.6297 19.1767 67.373 19.1767C66.7612 19.1767 66.215 19.3051 65.7343 19.5618C65.2591 19.813 64.8822 20.1626 64.6037 20.6105C64.3306 21.0529 64.1941 21.5582 64.1941 22.1262V30.0897H62.2605ZM70.8448 30.0897V17.5053H72.7784V30.0897H70.8448ZM71.8278 15.4079C71.4509 15.4079 71.126 15.2795 70.8529 15.0228C70.5853 14.7661 70.4516 14.4575 70.4516 14.097C70.4516 13.7365 70.5853 13.4279 70.8529 13.1712C71.126 12.9145 71.4509 12.7861 71.8278 12.7861C72.2047 12.7861 72.5271 12.9145 72.7947 13.1712C73.0678 13.4279 73.2043 13.7365 73.2043 14.097C73.2043 14.4575 73.0678 14.7661 72.7947 15.0228C72.5271 15.2795 72.2047 15.4079 71.8278 15.4079ZM78.2534 22.5195V30.0897H76.3197V17.5053H78.1878V19.4717H78.3516C78.6467 18.8326 79.0944 18.3192 79.6953 17.9314C80.2962 17.5381 81.0718 17.3415 82.0221 17.3415C82.8742 17.3415 83.6197 17.5163 84.2588 17.8658C84.8978 18.2099 85.3949 18.7343 85.75 19.4389C86.1051 20.138 86.2826 21.0229 86.2826 22.0934V30.0897H84.3488V22.2245C84.3488 21.2359 84.0921 20.4658 83.5787 19.9141C83.0653 19.357 82.3608 19.0784 81.4651 19.0784C80.8478 19.0784 80.2962 19.2122 79.8101 19.4798C79.3294 19.7475 78.9498 20.138 78.6711 20.6514C78.3926 21.1649 78.2534 21.7876 78.2534 22.5195ZM95.2888 17.5053V19.1439H88.767V17.5053H95.2888ZM90.6678 14.4903H92.6013V26.4849C92.6013 27.031 92.6807 27.4409 92.839 27.7139C93.0028 27.9815 93.2105 28.1617 93.4617 28.2546C93.7184 28.3421 93.9887 28.3857 94.2729 28.3857C94.4857 28.3857 94.6607 28.3748 94.7972 28.353C94.9337 28.3257 95.043 28.3037 95.1248 28.2873L95.518 30.0243C95.3869 30.0734 95.204 30.1227 94.9693 30.1718C94.7344 30.2263 94.4367 30.2538 94.0761 30.2538C93.53 30.2538 92.9948 30.1362 92.4702 29.9013C91.9513 29.6666 91.5199 29.3087 91.1757 28.828C90.8373 28.3475 90.6678 27.7412 90.6678 27.0092V14.4903ZM103.338 30.3519C102.126 30.3519 101.08 30.0843 100.2 29.5491C99.3265 29.0084 98.6519 28.2546 98.1766 27.2877C97.7071 26.3156 97.4722 25.185 97.4722 23.8959C97.4722 22.6069 97.7071 21.4708 98.1766 20.4876C98.6519 19.499 99.3128 18.7288 100.159 18.1772C101.012 17.62 102.006 17.3415 103.142 17.3415C103.797 17.3415 104.444 17.4507 105.083 17.6692C105.722 17.8877 106.304 18.2427 106.828 18.7343C107.353 19.2204 107.771 19.8649 108.082 20.6679C108.393 21.4708 108.549 22.4594 108.549 23.6337V24.453H98.8486V22.7817H106.583C106.583 22.0716 106.441 21.438 106.157 20.8809C105.878 20.3237 105.48 19.884 104.961 19.5618C104.447 19.2395 103.841 19.0784 103.142 19.0784C102.371 19.0784 101.705 19.2696 101.143 19.6519C100.585 20.0288 100.157 20.5204 99.8563 21.1267C99.556 21.7329 99.4057 22.3829 99.4057 23.0766V24.1908C99.4057 25.1414 99.5695 25.9468 99.8973 26.6079C100.231 27.2633 100.692 27.763 101.282 28.1072C101.872 28.4457 102.557 28.6151 103.338 28.6151C103.846 28.6151 104.305 28.544 104.715 28.402C105.13 28.2546 105.488 28.0361 105.788 27.7466C106.088 27.4518 106.321 27.0858 106.485 26.6487L108.352 27.173C108.156 27.8066 107.825 28.3639 107.361 28.8446C106.897 29.3196 106.323 29.691 105.641 29.9587C104.958 30.2208 104.191 30.3519 103.338 30.3519ZM111.491 30.0897V17.5053H113.358V19.4061H113.489C113.719 18.7834 114.134 18.2782 114.735 17.8904C115.336 17.5026 116.013 17.3087 116.767 17.3087C116.909 17.3087 117.086 17.3114 117.299 17.3169C117.512 17.3224 117.673 17.3305 117.783 17.3415V19.3078C117.717 19.2914 117.567 19.2668 117.332 19.2341C117.103 19.1958 116.86 19.1767 116.603 19.1767C115.991 19.1767 115.445 19.3051 114.964 19.5618C114.489 19.813 114.112 20.1626 113.834 20.6105C113.561 21.0529 113.424 21.5582 113.424 22.1262V30.0897H111.491ZM128.989 20.3237L127.252 20.8153C127.143 20.5258 126.981 20.2445 126.769 19.9714C126.561 19.6929 126.277 19.4635 125.916 19.2832C125.556 19.103 125.094 19.0128 124.532 19.0128C123.761 19.0128 123.12 19.1904 122.606 19.5454C122.098 19.895 121.844 20.3401 121.844 20.8809C121.844 21.3615 122.019 21.7411 122.369 22.0197C122.718 22.2983 123.265 22.5304 124.007 22.7161L125.875 23.1749C127.001 23.448 127.839 23.8659 128.391 24.4283C128.942 24.9856 129.218 25.7038 129.218 26.5833C129.218 27.3043 129.011 27.9488 128.595 28.5168C128.186 29.0849 127.612 29.5327 126.875 29.8605C126.138 30.1881 125.28 30.3519 124.302 30.3519C123.019 30.3519 121.956 30.0734 121.115 29.5164C120.274 28.9593 119.742 28.1453 119.518 27.0749L121.353 26.616C121.528 27.2932 121.858 27.8011 122.344 28.1399C122.836 28.4786 123.477 28.6478 124.269 28.6478C125.171 28.6478 125.886 28.4568 126.416 28.0745C126.952 27.6867 127.219 27.2223 127.219 26.6816C127.219 26.2445 127.066 25.8785 126.76 25.5837C126.454 25.2833 125.985 25.0593 125.351 24.9119L123.254 24.4203C122.101 24.1472 121.255 23.7239 120.714 23.1503C120.178 22.5714 119.911 21.8476 119.911 20.9792C119.911 20.2691 120.11 19.641 120.509 19.0948C120.913 18.5486 121.462 18.1198 122.156 17.8085C122.855 17.4971 123.647 17.3415 124.532 17.3415C125.777 17.3415 126.755 17.6146 127.465 18.1608C128.18 18.707 128.688 19.428 128.989 20.3237Z" fill="#4640DE"/>
</g>
</g>
</g>
<defs>
<clipPath id="clip0_31891_195">
<rect width="160" height="47.4074" fill="white" transform="translate(0.667969 0.296387)"/>
</clipPath>
</defs>
</svg>
