<svg width="44" height="44" viewBox="0 0 44 44" fill="none" xmlns="http://www.w3.org/2000/svg">
<rect width="44" height="44" rx="22" fill="white"/>
<path d="M18.4678 18.3946L18.4656 18.3964L18.4634 18.3985L18.4678 18.3946ZM28.4219 18.208C28.3523 18.141 28.2751 18.0823 28.1919 18.0332C28.0741 17.9639 27.9433 17.9195 27.8076 17.9027C27.672 17.8859 27.5343 17.8971 27.4031 17.9356C27.272 17.9742 27.1501 18.0392 27.0451 18.1267C26.9401 18.2142 26.8541 18.3223 26.7925 18.4444C26.448 19.1231 25.9729 19.7271 25.3945 20.2217C25.483 19.7233 25.5276 19.2181 25.5278 18.7119C25.5297 17.172 25.1234 15.6592 24.3505 14.3273C23.5775 12.9955 22.4654 11.8922 21.1274 11.1299C20.98 11.0464 20.8138 11.0017 20.6444 10.9999C20.475 10.9982 20.3079 11.0396 20.1588 11.1201C20.0098 11.2006 19.8836 11.3177 19.7922 11.4604C19.7008 11.603 19.6471 11.7665 19.6362 11.9356C19.5802 12.8838 19.3324 13.8107 18.9076 14.6603C18.4828 15.5098 17.89 16.2643 17.165 16.878L16.9346 17.0655C16.1765 17.5756 15.5055 18.2044 14.9473 18.9278C14.0796 20.0209 13.4785 21.3011 13.1917 22.667C12.9049 24.0328 12.9403 25.4467 13.2951 26.7964C13.6498 28.1462 14.3142 29.3948 15.2354 30.4431C16.1567 31.4915 17.3096 32.3107 18.6026 32.836C18.7544 32.898 18.9191 32.9217 19.0823 32.9051C19.2454 32.8884 19.402 32.8318 19.5381 32.7403C19.6742 32.6488 19.7857 32.5252 19.8628 32.3805C19.9399 32.2357 19.9801 32.0742 19.98 31.9102C19.9793 31.8041 19.9625 31.6988 19.9302 31.5977C19.7065 30.7567 19.6421 29.8813 19.7403 29.0166C20.6865 30.8014 22.2054 32.216 24.0528 33.0332C24.2783 33.1341 24.5332 33.1477 24.7681 33.0713C26.2277 32.6002 27.5425 31.7638 28.5878 30.6414C29.633 29.519 30.3739 28.148 30.74 26.6586C31.1061 25.1693 31.0853 23.611 30.6796 22.132C30.2739 20.6529 29.4967 19.3021 28.4219 18.208ZM24.5171 31.0391C23.6454 30.5973 22.8765 29.977 22.2603 29.2186C21.6441 28.4601 21.1944 27.5804 20.9405 26.6368C20.8629 26.319 20.8029 25.9972 20.7608 25.6729C20.7322 25.4663 20.6398 25.2739 20.4965 25.1224C20.3532 24.971 20.1661 24.8681 19.9615 24.8282C19.8984 24.8157 19.8343 24.8095 19.77 24.8096C19.5943 24.8096 19.4216 24.8558 19.2694 24.9438C19.1173 25.0318 18.991 25.1583 18.9033 25.3106C18.0736 26.7417 17.6563 28.3746 17.6978 30.0284C16.968 29.461 16.3581 28.7544 15.9034 27.9496C15.4488 27.1447 15.1584 26.2577 15.049 25.3398C14.9397 24.4219 15.0137 23.4914 15.2666 22.6023C15.5195 21.7132 15.9464 20.8831 16.5225 20.1602C16.9599 19.5921 17.4876 19.0995 18.0845 18.7022C18.1103 18.6855 18.1351 18.6673 18.1587 18.6475C18.1587 18.6475 18.4554 18.4021 18.4655 18.3964C19.8902 17.1914 20.9035 15.5719 21.3643 13.7637C22.4538 14.771 23.1804 16.1098 23.431 17.5723C23.6817 19.0347 23.4425 20.5391 22.7505 21.8516C22.6591 22.0268 22.6216 22.2251 22.6427 22.4215C22.6639 22.618 22.7427 22.8037 22.8693 22.9554C22.9959 23.1071 23.1646 23.2179 23.3541 23.2738C23.5436 23.3297 23.7454 23.3283 23.9341 23.2696C25.4659 22.7895 26.8138 21.8516 27.7964 20.5821C28.3869 21.4544 28.773 22.4487 28.9259 23.491C29.0787 24.5332 28.9944 25.5965 28.6792 26.6017C28.364 27.6068 27.826 28.5279 27.1054 29.2962C26.3847 30.0645 25.5 30.6603 24.5171 31.0391L24.5171 31.0391Z" fill="#26A4FF"/>
</svg>
