<svg width="44" height="44" viewBox="0 0 44 44" fill="none" xmlns="http://www.w3.org/2000/svg">
<rect width="44" height="44" rx="22" fill="white"/>
<path fill-rule="evenodd" clip-rule="evenodd" d="M22 15C21.4696 15 20.9609 15.2107 20.5858 15.5858C20.2107 15.9609 20 16.4696 20 17C20 17.5304 20.2107 18.0391 20.5858 18.4142C20.9609 18.7893 21.4696 19 22 19C22.5304 19 23.0391 18.7893 23.4142 18.4142C23.7893 18.0391 24 17.5304 24 17C24 16.4696 23.7893 15.9609 23.4142 15.5858C23.0391 15.2107 22.5304 15 22 15ZM19.1716 14.1716C19.9217 13.4214 20.9391 13 22 13C23.0609 13 24.0783 13.4214 24.8284 14.1716C25.5786 14.9217 26 15.9391 26 17C26 18.0609 25.5786 19.0783 24.8284 19.8284C24.0783 20.5786 23.0609 21 22 21C20.9391 21 19.9217 20.5786 19.1716 19.8284C18.4214 19.0783 18 18.0609 18 17C18 15.9391 18.4214 14.9217 19.1716 14.1716ZM15 19C14.7348 19 14.4804 19.1054 14.2929 19.2929C14.1054 19.4804 14 19.7348 14 20C14 20.2652 14.1054 20.5196 14.2929 20.7071C14.4804 20.8946 14.7348 21 15 21C15.2652 21 15.5196 20.8946 15.7071 20.7071C15.8946 20.5196 16 20.2652 16 20C16 19.7348 15.8946 19.4804 15.7071 19.2929C15.5196 19.1054 15.2652 19 15 19ZM12.8787 17.8787C13.4413 17.3161 14.2043 17 15 17C15.7957 17 16.5587 17.3161 17.1213 17.8787C17.6839 18.4413 18 19.2044 18 20C18 20.7956 17.6839 21.5587 17.1213 22.1213C16.5587 22.6839 15.7957 23 15 23C14.2043 23 13.4413 22.6839 12.8787 22.1213C12.3161 21.5587 12 20.7956 12 20C12 19.2044 12.3161 18.4413 12.8787 17.8787ZM29 19C28.7348 19 28.4804 19.1054 28.2929 19.2929C28.1054 19.4804 28 19.7348 28 20C28 20.2652 28.1054 20.5196 28.2929 20.7071C28.4804 20.8946 28.7348 21 29 21C29.2652 21 29.5196 20.8946 29.7071 20.7071C29.8946 20.5196 30 20.2652 30 20C30 19.7348 29.8946 19.4804 29.7071 19.2929C29.5196 19.1054 29.2652 19 29 19ZM26.8787 17.8787C27.4413 17.3161 28.2043 17 29 17C29.7957 17 30.5587 17.3161 31.1213 17.8787C31.6839 18.4413 32 19.2043 32 20C32 20.7957 31.6839 21.5587 31.1213 22.1213C30.5587 22.6839 29.7957 23 29 23C28.2043 23 27.4413 22.6839 26.8787 22.1213C26.3161 21.5587 26 20.7957 26 20C26 19.2043 26.3161 18.4413 26.8787 17.8787ZM22 23.9993C21.2003 23.9993 20.4189 24.2389 19.7566 24.6872C19.1323 25.1098 18.6408 25.6996 18.3377 26.3878L18.0966 29H25.9034L25.6623 26.3878C25.3592 25.6996 24.8677 25.1098 24.2434 24.6872C23.5811 24.2389 22.7997 23.9993 22 23.9993ZM28 29H31V28.0001C31 28 31 28.0001 31 28.0001C31 27.5845 30.8704 27.1791 30.6294 26.8405C30.3884 26.5019 30.0479 26.2467 29.6552 26.1106C29.2625 25.9744 28.8371 25.964 28.4382 26.0808C28.2014 26.1501 27.981 26.2621 27.7871 26.41C27.9262 26.9175 28 27.451 28 28V29ZM26.9298 24.5776C26.51 23.9732 25.9804 23.4479 25.3646 23.031C24.3713 22.3587 23.1994 21.9993 22 21.9993C20.8006 21.9993 19.6287 22.3587 18.6354 23.031C18.0196 23.4479 17.49 23.9732 17.0702 24.5776C16.7758 24.3995 16.4578 24.2591 16.1237 24.1613C15.3258 23.9278 14.4751 23.9486 13.6897 24.2209C12.9042 24.4932 12.2232 25.0035 11.7411 25.6808C11.2591 26.358 11.0001 27.1686 11 27.9999V30C11 30.5523 11.4477 31 12 31H32C32.5523 31 33 30.5523 33 30V28C32.9999 27.1687 32.7409 26.358 32.2589 25.6808C31.7768 25.0035 31.0958 24.4932 30.3103 24.2209C29.5249 23.9486 28.6742 23.9278 27.8763 24.1613C27.5422 24.2591 27.2242 24.3995 26.9298 24.5776ZM16.2129 26.41C16.019 26.2621 15.7986 26.1501 15.5618 26.0808C15.1629 25.964 14.7375 25.9744 14.3448 26.1106C13.9521 26.2467 13.6116 26.5019 13.3706 26.8405C13.1296 27.1791 13 27.5844 13 28C13 28 13 28 13 28V29H16V28C16 27.451 16.0738 26.9175 16.2129 26.41Z" fill="#26A4FF"/>
</svg>
