<svg width="24" height="24" viewBox="0 0 24 24" fill="none" xmlns="http://www.w3.org/2000/svg">
<path d="M19.7739 22.5517C20.5331 22.2458 21.1833 21.7721 21.775 21.1181C22.1222 20.7392 22.3961 20.3281 22.6165 19.8557C22.8412 19.3743 22.96 18.8583 22.96 18.34C22.96 17.9546 22.8825 17.5735 22.7225 17.1682L22.7226 17.1682L22.7204 17.163C22.5403 16.7352 22.2377 16.379 21.8325 16.1045L18.5148 13.7462L18.5134 13.7452C18.199 13.5251 17.9036 13.3666 17.6274 13.2498L17.6257 13.249C16.8605 12.932 16.0789 12.9914 15.4567 13.3723C15.1406 13.5373 14.8232 13.7834 14.5038 14.1026C14.5036 14.1028 14.5034 14.103 14.5032 14.1032L13.9466 14.6522C13.7385 14.5294 13.4223 14.3088 12.971 13.9288L12.9692 13.9273C12.5181 13.5546 12.0348 13.1012 11.447 12.5234C10.9926 12.059 10.5369 11.554 10.0492 10.9966C9.66481 10.5452 9.4411 10.2269 9.31494 10.023L9.86869 9.44487C10.1673 9.14594 10.4123 8.8396 10.5765 8.54507C10.8058 8.16159 10.93 7.74883 10.93 7.32C10.93 6.99108 10.851 6.65859 10.7111 6.33456C10.5919 6.03233 10.4212 5.7355 10.2032 5.43438C10.203 5.43405 10.2027 5.43371 10.2025 5.43337L7.88594 2.16823C7.6187 1.76865 7.25266 1.47067 6.82561 1.2734C6.45211 1.0978 6.01605 1 5.59 1C4.57708 1 3.63688 1.41117 2.82682 2.20967C2.19234 2.80319 1.72134 3.493 1.42743 4.23828L1.42719 4.2389C1.14556 4.95861 1 5.72957 1 6.54C1 7.70846 1.26882 8.94133 1.79945 10.2067L1.7997 10.2073C2.29816 11.3873 2.99804 12.6034 3.8668 13.8156L3.86678 13.8156L3.86834 13.8178C4.72559 14.9877 5.69362 16.1271 6.7624 17.2059L6.76238 17.206L6.7649 17.2084C7.8433 18.2667 8.98233 19.2344 10.1619 20.1014L10.1639 20.1028C11.3564 20.9619 12.5825 21.6717 13.8022 22.1901L13.8027 22.1903C15.0569 22.7205 16.2801 23 17.45 23C18.272 23 19.0539 22.8438 19.7739 22.5517ZM19.7739 22.5517C19.7738 22.5518 19.7736 22.5518 19.7734 22.5519L19.68 22.32M19.7739 22.5517C19.774 22.5517 19.774 22.5517 19.774 22.5517L19.68 22.32M19.68 22.32C20.4 22.03 21.02 21.58 21.59 20.95L13.9 21.96C15.13 22.48 16.32 22.75 17.45 22.75C18.24 22.75 18.99 22.6 19.68 22.32ZM16.96 14.85L16.8648 15.0812C17.0144 15.1428 17.1781 15.2329 17.366 15.3643C17.3662 15.3645 17.3664 15.3646 17.3666 15.3648L20.6852 17.7238L20.6851 17.7238L20.6888 17.7263C20.7665 17.7795 20.8112 17.8241 20.8376 17.8558C20.8611 17.8842 20.8736 17.9067 20.8839 17.9268C20.9479 18.0725 20.97 18.1964 20.97 18.32C20.97 18.5408 20.9192 18.764 20.8146 18.9818L20.8136 18.9839C20.674 19.2817 20.5081 19.5303 20.296 19.7607L20.296 19.7607L20.2934 19.7637C19.9069 20.1973 19.4876 20.4942 19.0148 20.6888L19.0138 20.6892C17.7799 21.2034 16.2548 21.0559 14.5782 20.3401L14.5765 20.3394C13.497 19.8879 12.404 19.2583 11.3376 18.4782L11.3374 18.4781C10.2379 17.6758 9.16775 16.7642 8.17675 15.7832C7.18578 14.7822 6.28433 13.7222 5.49218 12.633C4.70189 11.5463 4.08182 10.4627 3.64015 9.42237C3.21091 8.40774 3 7.43094 3 6.54C3 5.97914 3.09488 5.46126 3.29181 4.97362L3.29182 4.97362L3.29274 4.97127C3.47809 4.49865 3.77576 4.05922 4.21072 3.65263L4.21077 3.65268L4.21494 3.64859C4.67144 3.20141 5.12185 3 5.59 3C5.71996 3 5.85493 3.03044 5.98696 3.0878C6.09553 3.13897 6.18133 3.21012 6.25625 3.31487C6.25635 3.31501 6.25646 3.31516 6.25657 3.31531L8.5759 6.59437L8.57586 6.59439L8.57874 6.5983C8.71159 6.7786 8.80997 6.94141 8.87007 7.07817C8.9137 7.18346 8.93 7.26746 8.93 7.3C8.93 7.34521 8.91773 7.41042 8.85709 7.50898L8.85704 7.50895L8.85452 7.51325C8.76783 7.66061 8.63234 7.8341 8.44322 8.02322L8.44319 8.02319L8.43979 8.02672L7.69143 8.80502C7.39437 9.103 7.24 9.48648 7.24 9.91C7.24 10.0802 7.26554 10.2333 7.3281 10.4731L7.33206 10.4883L7.33788 10.5028L7.45788 10.8028L7.46315 10.816L7.46988 10.8285C7.69191 11.2409 8.04467 11.7262 8.51994 12.2824L8.52087 12.2835C9.03432 12.8775 9.52785 13.4113 10.0214 13.915L10.0214 13.915L10.0246 13.9182C10.6577 14.5412 11.1821 15.0253 11.6676 15.4401L11.6682 15.4406C12.2062 15.8974 12.701 16.2491 13.1318 16.4803L13.14 16.4847L13.1485 16.4885L13.4185 16.6085L13.4258 16.6117L13.4333 16.6145C13.9758 16.815 14.6795 16.7121 15.1445 16.2591L15.1456 16.2579L15.9056 15.5079L15.9068 15.5068C16.0996 15.3139 16.2573 15.1859 16.4218 15.1036L16.4318 15.0986L16.4414 15.0927C16.5937 14.9986 16.6456 15.0005 16.6598 15.0017C16.6708 15.0026 16.687 15.0059 16.7209 15.0194C16.7383 15.0264 16.7571 15.0346 16.782 15.0456L16.7842 15.0466C16.8075 15.0568 16.8352 15.069 16.8653 15.0814L16.96 14.85ZM16.96 14.85C16.933 14.839 16.908 14.8279 16.8842 14.8174C16.7142 14.7424 16.6083 14.6958 16.31 14.88M16.96 14.85C17.13 14.92 17.31 15.02 17.51 15.16L16.31 14.88M16.31 14.88C16.11 14.98 15.93 15.13 15.73 15.33L16.31 14.88ZM19.11 20.92C17.79 21.47 16.19 21.3 14.48 20.57C13.38 20.11 12.27 19.47 11.19 18.68L19.11 20.92ZM19.11 20.92C19.62 20.71 20.07 20.39 20.48 19.93L19.11 20.92Z" fill="#4640DE" stroke="#4640DE" stroke-width="0.5"/>
</svg>
